# This file uses centimeters as units for non-parametric coordinates.

mtllib Rock3.mtl
g default
v -0.887723 0.032714 0.970305
v -0.817854 0.003569 0.956460
v -0.793037 0.032432 1.023306
v -0.789667 0.105185 1.053972
v -0.862018 0.105096 1.035785
v -0.915718 0.105552 0.983459
v 0.307985 0.111337 1.034816
v 0.236581 0.111337 1.034816
v 0.236583 0.038381 1.007058
v 0.236581 0.009464 0.934733
v 0.307985 0.009464 0.934733
v 0.379388 0.009464 0.934733
v 0.379389 0.038411 1.007062
v 0.379388 0.111337 1.034816
v -0.858891 1.682629 0.900285
v -0.784980 1.700248 0.918962
v -0.797101 1.770347 0.904339
v -0.822139 1.828953 0.859946
v -0.881958 1.780617 0.856197
v -0.905341 1.705613 0.848955
v 0.307993 2.142560 0.807366
v 0.379388 2.128239 0.810979
v 0.381432 2.199969 0.793619
v 0.383454 2.263104 0.750543
v 0.311348 2.276796 0.748254
v 0.236581 2.261602 0.753169
v 0.236581 2.200182 0.794260
v 0.236581 2.128239 0.810979
v -1.418629 2.769365 -0.464643
v -1.421340 2.722638 -0.378450
v -1.389737 2.805551 -0.379896
v -1.333141 2.857818 -0.386318
v -1.348996 2.869716 -0.468231
v -1.358316 2.804416 -0.514192
v 0.307742 3.611426 -0.722840
v 0.236502 3.595300 -0.718491
v 0.236495 3.658572 -0.662907
v 0.236577 3.638399 -0.582279
v 0.307811 3.654773 -0.586448
v 0.379223 3.637382 -0.582355
v 0.379310 3.657364 -0.662981
v 0.379499 3.593770 -0.718553
v -1.670380 0.117602 -0.646458
v -1.611921 0.118725 -0.698150
v -1.599586 0.048845 -0.669648
v -1.564300 0.019341 -0.602892
v -1.635758 0.047067 -0.580020
v -1.664438 0.117326 -0.568552
v 0.307528 0.073469 -1.202129
v 0.378485 0.071560 -1.190393
v 0.379020 -0.000139 -1.159674
v 0.379527 -0.031606 -1.085016
v 0.306350 -0.029462 -1.097819
v 0.236205 -0.029993 -1.090011
v 0.236301 0.001368 -1.163476
v 0.236462 0.072744 -1.193621
v -0.915210 0.905336 0.910727
v -0.915160 0.829419 0.910812
v -0.862226 0.810265 0.961739
v -0.789441 0.805209 0.978487
v -0.789472 0.876651 0.978489
v -0.789504 0.948092 0.978491
v -0.861651 0.957278 0.962589
v -0.915259 0.981254 0.910642
v 1.403590 0.031575 1.024491
v 1.421178 0.001586 0.955961
v 1.490615 0.030810 0.964424
v 1.519781 0.103163 0.972669
v 1.472670 0.103555 1.032317
v 1.400916 0.103896 1.053910
v 1.529096 0.904770 0.908526
v 1.529148 0.980436 0.908429
v 1.476761 0.957057 0.961847
v 1.404575 0.948108 0.978443
v 1.404540 0.876665 0.978441
v 1.404505 0.805221 0.978439
v 1.477589 0.810278 0.961064
v 1.529044 0.829103 0.908622
v 1.474798 1.682429 0.900437
v 1.521313 1.704973 0.848948
v 1.497955 1.780175 0.855693
v 1.437866 1.828906 0.858774
v 1.412865 1.770531 0.903920
v 1.400927 1.700027 0.918960
v 1.968672 2.845659 -0.469333
v 1.954253 2.835272 -0.391062
v 2.005575 2.781978 -0.382399
v 2.032945 2.692881 -0.377786
v 2.031950 2.743627 -0.464658
v 1.974608 2.782330 -0.513114
v -1.646175 1.430587 -0.400032
v -1.637630 1.500786 -0.400815
v -1.640506 1.540542 -0.480469
v -1.571588 1.574989 -0.533274
v -1.589292 1.486459 -0.531336
v -1.596198 1.423502 -0.530485
v -1.656933 1.390493 -0.478209
v -1.648994 1.350622 -0.397183
v 2.144683 1.462193 -0.600032
v 2.132339 1.547267 -0.602512
v 2.198758 1.513304 -0.550570
v 2.196982 1.475465 -0.471647
v 2.200274 1.402407 -0.470938
v 2.191886 1.323013 -0.468187
v 2.199778 1.363169 -0.548542
v 2.143870 1.397090 -0.598876
v 2.000043 0.092902 -0.648686
v 2.003414 0.091800 -0.571220
v 1.966916 0.020321 -0.583105
v 1.897718 -0.005847 -0.607115
v 1.923069 0.023729 -0.672339
v 1.940752 0.096288 -0.699589
v 0.239168 1.912872 -1.092457
v 0.239452 1.985195 -1.082574
v 0.309889 1.993860 -1.090672
v 0.379255 1.986353 -1.080566
v 0.377820 1.910807 -1.091536
v 0.377043 1.838352 -1.095175
v 0.307878 1.847256 -1.104688
v 0.238769 1.840188 -1.095751
v 0.379292 0.895200 0.924222
v 0.379292 0.966525 0.920564
v 0.307872 0.967227 0.918553
v 0.236581 0.966620 0.920565
v 0.236629 0.895248 0.924222
v 0.236677 0.823875 0.927879
v 0.307984 0.824524 0.926122
v 0.379292 0.823875 0.927879
v -0.852611 0.045553 1.018910
v 0.307995 0.038393 1.007101
v -0.852673 1.744243 0.895462
v 0.309350 2.214498 0.790269
v -1.397025 2.829698 -0.445976
v 0.307742 3.674897 -0.667081
v -1.651693 0.060498 -0.638728
v 0.307093 0.001960 -1.171785
v -0.861914 0.883756 0.962153
v 1.462090 0.044451 1.017053
v 1.477110 0.883660 0.961449
v 1.468572 1.744191 0.895303
v 2.013210 2.805335 -0.447203
v -1.651589 1.462223 -0.478934
v 2.204531 1.435361 -0.549122
v 1.975570 0.034025 -0.641352
v 0.308363 1.920020 -1.101176
v 0.307908 0.895872 0.922337
vt 0.381038 0.987355
vt 0.383821 0.014712
vt 0.492442 0.986508
vt 0.505197 0.983726
vt 0.384356 0.242140
vt 0.382979 0.260570
vt 0.492442 0.242760
vt 0.507558 0.242760
vt 0.505427 0.260016
vt 0.382652 0.479155
vt 0.494931 0.482067
vt 0.505057 0.482076
vt 0.142485 0.012178
vt 0.492402 0.765562
vt 0.381884 0.741552
vt 0.495568 0.742359
vt 0.504561 0.742337
vt 0.142993 0.118382
vt 0.362352 0.135878
vt 0.143126 0.135066
vt 0.492467 0.134302
vt 0.383850 0.114944
vt 0.492453 0.114988
vt 0.613957 0.982897
vt 0.615859 0.762870
vt 0.639421 0.014572
vt 0.638817 0.118481
vt 0.615641 0.242119
vt 0.638035 0.135843
vt 0.507547 0.114988
vt 0.616067 0.135225
vt 0.507523 0.134289
vt 0.617641 0.480109
vt 0.638162 0.239543
vt 0.853613 0.241074
vt 0.857269 0.134968
vt 0.495709 0.629946
vt 0.382637 0.618414
vt 0.495035 0.618845
vt 0.505175 0.618578
vt 0.504423 0.629969
vt 0.617786 0.741172
vt 0.857214 0.118255
vt 0.858676 0.012157
vt 0.616948 0.260762
vt 0.617498 0.618438
vt 0.505076 0.510413
vt 0.618105 0.511927
vt 0.505214 0.763415
vt 0.362147 0.239524
vt 0.146271 0.241333
vt 0.381457 0.766344
vt 0.382146 0.512420
vt 0.494926 0.510390
vt 0.494827 0.259399
vt 0.383838 0.135225
vt 0.492458 0.014986
vt 0.616055 0.114945
vt 0.507542 0.014986
vt 0.615680 0.014525
vt 0.617649 0.629940
vt 0.381948 0.629878
vt 0.362467 0.014694
vt 0.362448 0.118340
vt 0.375000 0.990330
vt 0.365330 0.000000
vt 0.381577 0.000000
vt 0.381577 1.000000
vt 0.373354 0.014163
vt 0.500000 0.014680
vt 0.492320 1.000000
vt 0.492320 0.000000
vt 0.498861 0.985289
vt 0.507719 0.000000
vt 0.507719 1.000000
vt 0.372869 0.238064
vt 0.384206 0.250838
vt 0.366600 0.250000
vt 0.375000 0.258400
vt 0.499992 0.244047
vt 0.506476 0.251234
vt 0.500217 0.261137
vt 0.493655 0.251078
vt 0.125000 0.244017
vt 0.375000 0.505983
vt 0.375000 0.490262
vt 0.134738 0.250000
vt 0.383315 0.497074
vt 0.499983 0.509218
vt 0.496120 0.496417
vt 0.499984 0.484008
vt 0.503862 0.496381
vt 0.375000 0.744612
vt 0.125000 0.005388
vt 0.381185 0.753503
vt 0.134824 0.000000
vt 0.375000 0.759824
vt 0.500051 0.742333
vt 0.504534 0.752656
vt 0.498722 0.763083
vt 0.494350 0.753705
vt 0.362466 0.126999
vt 0.373214 0.115524
vt 0.383786 0.125008
vt 0.373347 0.134574
vt 0.618474 1.000000
vt 0.618474 0.000000
vt 0.635497 0.000000
vt 0.625000 0.989503
vt 0.627217 0.014063
vt 0.638344 0.127046
vt 0.626801 0.134588
vt 0.616122 0.125010
vt 0.627367 0.115632
vt 0.627246 0.238092
vt 0.625000 0.258470
vt 0.633470 0.250000
vt 0.615750 0.250919
vt 0.617029 0.497146
vt 0.865384 0.250000
vt 0.625000 0.490384
vt 0.625000 0.506023
vt 0.875000 0.243977
vt 0.142457 0.127040
vt 0.375000 0.617909
vt 0.125000 0.132091
vt 0.381960 0.625044
vt 0.125000 0.118602
vt 0.375000 0.631398
vt 0.618021 0.624830
vt 0.875000 0.132047
vt 0.625000 0.617953
vt 0.857985 0.126741
vt 0.625000 0.631358
vt 0.875000 0.118642
vt 0.875000 0.005640
vt 0.625000 0.744360
vt 0.625000 0.760337
vt 0.864663 0.000000
vt 0.616913 0.752141
vt 0.495442 0.624417
vt 0.500132 0.618353
vt 0.504698 0.624439
vt 0.500058 0.629441
vt 0.507536 0.124669
vt 0.499988 0.134221
vt 0.492459 0.124675
vt 0.500001 0.115080
vt 0.375000 1.000000
vt 0.375000 0.000000
vt 0.500000 1.000000
vt 0.500000 0.000000
vt 0.375000 0.250000
vt 0.500000 0.250000
vt 0.125000 0.250000
vt 0.375000 0.500000
vt 0.500000 0.500000
vt 0.375000 0.750000
vt 0.125000 0.000000
vt 0.500000 0.750000
vt 0.375000 0.125000
vt 0.625000 1.000000
vt 0.625000 0.000000
vt 0.625000 0.125000
vt 0.625000 0.250000
vt 0.625000 0.500000
vt 0.875000 0.250000
vt 0.375000 0.625000
vt 0.125000 0.125000
vt 0.875000 0.125000
vt 0.625000 0.625000
vt 0.875000 0.000000
vt 0.625000 0.750000
vt 0.500000 0.625000
vt 0.500000 0.125000
vn -0.023668 -0.999496 0.021180
vn -0.333158 -0.929411 0.158752
vn -0.336610 -0.931265 0.139425
vn -0.038748 -0.999224 -0.007075
vn -0.824778 -0.394938 0.404678
vn -0.883815 -0.044522 0.465713
vn -0.900574 -0.045273 0.432339
vn -0.832411 -0.395339 0.388328
vn 0.014235 0.077392 0.996899
vn 0.007238 -0.371165 0.928539
vn 0.016982 -0.371370 0.928330
vn 0.029771 0.080822 0.996284
vn 0.002523 -0.923218 0.384268
vn -0.011939 -0.999717 0.020586
vn 0.011403 -0.924555 0.380877
vn -0.691155 0.040396 0.721577
vn -0.687227 0.069336 0.723126
vn -0.884700 -0.012317 0.465998
vn -0.228115 0.069292 0.971165
vn 0.015565 0.117476 0.992954
vn -0.228832 0.092340 0.969076
vn 0.000002 0.101353 0.994851
vn -0.000000 0.140697 0.990053
vn 0.032470 0.119975 0.992246
vn -0.029824 0.081752 0.996206
vn -0.032431 0.119934 0.992252
vn 0.002527 -0.999650 0.026318
vn -0.005778 -0.999452 0.032598
vn -0.005394 -0.999985 0.000958
vn 0.011356 -0.999861 -0.012195
vn -0.019967 -0.999669 -0.016197
vn -0.017896 -0.365791 0.930525
vn -0.005901 -0.364972 0.931000
vn -0.012488 0.078466 0.996839
vn -0.012855 -0.923399 0.383627
vn 0.017221 -0.999486 0.027050
vn -0.001888 -0.922281 0.386515
vn 0.047701 0.094035 0.994426
vn -0.234841 0.083749 0.968419
vn -0.232882 0.074725 0.969630
vn 0.045867 0.082915 0.995501
vn -0.701907 0.070800 0.708741
vn -0.860396 0.116007 0.496247
vn -0.858167 0.101944 0.503147
vn -0.700592 0.057101 0.711274
vn -0.247783 0.678029 0.692012
vn -0.075392 0.382489 0.920879
vn -0.085077 0.438125 0.894879
vn -0.230835 0.684629 0.691374
vn 0.052882 0.102679 0.993308
vn -0.676313 0.400082 0.618495
vn -0.624435 0.471807 0.622478
vn -0.878970 0.139865 0.455905
vn -0.258313 0.698405 0.667461
vn -0.052576 0.103341 0.993255
vn 0.000244 0.104535 0.994521
vn 0.000024 0.091680 0.995789
vn -0.058518 0.084155 0.994733
vn 0.058533 0.084140 0.994733
vn 0.238717 0.685832 0.687495
vn 0.087689 0.442488 0.892477
vn 0.078377 0.389657 0.917619
vn 0.255189 0.679467 0.687898
vn -0.047408 0.094388 0.994406
vn 0.004725 0.692176 0.721713
vn 0.004993 0.696026 0.717999
vn -0.227622 0.687566 0.689523
vn 0.235895 0.688667 0.685632
vn -0.977270 0.187256 0.099393
vn -0.980662 0.172618 0.092226
vn -0.874112 0.110774 0.472924
vn -0.658984 0.135953 -0.739768
vn -0.275608 0.161621 -0.947586
vn -0.292240 0.141868 -0.945764
vn -0.655919 0.123196 -0.744710
vn -0.389189 0.587681 -0.709340
vn -0.372176 0.593418 -0.713681
vn -0.375977 0.591989 -0.712875
vn -0.418935 0.881689 0.217068
vn -0.406929 0.887551 0.216013
vn -0.403734 0.888904 0.216447
vn -0.253817 0.153117 -0.955056
vn 0.005888 0.220881 -0.975283
vn 0.006528 0.217801 -0.975971
vn -0.259840 0.147861 -0.954264
vn 0.248016 0.169269 -0.953853
vn 0.252738 0.163338 -0.953648
vn 0.379668 0.582752 -0.718507
vn 0.375672 0.584457 -0.719222
vn 0.393046 0.577722 -0.715368
vn 0.269864 0.178596 -0.946191
vn 0.414542 0.885738 0.208862
vn 0.417763 0.884350 0.208324
vn 0.265851 0.699484 0.663359
vn 0.430168 0.878208 0.209061
vn -0.296560 0.064752 -0.952817
vn -0.669715 0.086429 -0.737572
vn -0.670205 0.101814 -0.735160
vn -0.294767 0.083341 -0.951928
vn -0.995976 -0.015218 0.088314
vn -0.900500 -0.011033 0.434716
vn -0.996042 0.004588 0.088768
vn -0.133407 -0.922725 -0.361636
vn -0.120054 -0.921294 -0.369872
vn -0.257590 -0.389285 -0.884367
vn -0.277004 0.061722 -0.958884
vn -0.243332 -0.389680 -0.888223
vn 0.283718 0.024253 -0.958601
vn 0.014909 0.036876 -0.999209
vn 0.012618 0.054460 -0.998436
vn 0.280789 0.041192 -0.958885
vn -0.277095 0.080274 -0.957483
vn 0.127884 -0.917239 -0.377251
vn 0.142173 -0.917647 -0.371093
vn 0.027152 -0.999631 -0.000942
vn 0.277365 -0.386617 -0.879543
vn 0.301479 0.023566 -0.953182
vn 0.291569 -0.386604 -0.874943
vn -0.860376 0.033954 0.508528
vn -0.876097 0.043959 0.480127
vn 0.033765 0.023720 0.999148
vn 0.050642 0.027302 0.998344
vn 0.926113 -0.123177 0.356570
vn 0.859121 -0.428277 0.280163
vn 0.863635 -0.431211 0.261137
vn 0.937423 -0.130737 0.322716
vn 0.344819 -0.930990 0.119825
vn 0.347465 -0.932278 0.100623
vn 0.255655 0.067269 0.964425
vn 0.253049 0.088497 0.963397
vn -0.013569 0.117171 0.993019
vn 0.751243 0.024259 0.659580
vn 0.927861 -0.095071 0.360604
vn 0.743241 0.051677 0.667025
vn 0.886112 0.065450 0.458826
vn 0.895670 -0.015823 0.444439
vn 0.908776 -0.004497 0.417259
vn 0.901290 0.071454 0.427283
vn 0.939642 -0.100206 0.327156
vn -0.045639 0.082898 0.995512
vn 0.236712 0.073872 0.968768
vn 0.238050 0.083175 0.967685
vn 0.712626 0.054103 0.699455
vn 0.887552 0.078466 0.453976
vn 0.712360 0.067481 0.698562
vn -0.033149 0.023738 0.999169
vn -0.050634 0.027296 0.998344
vn 0.691889 0.389805 0.607735
vn 0.634987 0.467473 0.615030
vn 0.901921 0.101973 0.419691
vn 0.674006 0.147278 -0.723896
vn 0.669641 0.131049 -0.731032
vn 0.283877 0.157057 -0.945911
vn 0.986540 0.141304 0.082293
vn 0.989312 0.126237 0.072985
vn -0.320710 0.054785 -0.945592
vn -0.299155 0.063213 -0.952109
vn 0.294779 0.037511 -0.954829
vn 0.273122 0.048976 -0.960732
vn 0.300257 0.038592 -0.953077
vn 0.651490 -0.042708 -0.757454
vn 0.649686 -0.055535 -0.758171
vn 0.989216 -0.146292 -0.007073
vn 0.986258 -0.164812 -0.011532
vn -0.685028 -0.339733 0.644452
vn -0.249361 -0.862233 0.440878
vn -0.191202 -0.339660 0.920909
vn 0.000023 -0.355413 0.934709
vn 0.000091 -0.928516 0.371293
vn -0.472661 0.251621 0.844558
vn 0.005131 0.424795 0.905275
vn -0.689362 0.458289 -0.561027
vn -0.929170 0.323661 0.178568
vn -0.591814 0.757013 0.276924
vn 0.006876 0.659560 -0.751621
vn 0.005166 0.659570 -0.751625
vn 0.007936 0.970247 0.241988
vn 0.007444 0.970250 0.241990
vn -0.930081 -0.349250 0.113902
vn -0.581615 -0.351421 -0.733640
vn -0.363998 -0.916654 -0.165080
vn 0.020162 -0.390743 -0.920279
vn 0.001477 -0.920473 -0.390803
vn -0.694486 -0.000502 0.719507
vn -0.219980 -0.002489 0.975501
vn 0.235434 -0.325506 0.915760
vn 0.280934 -0.863904 0.418026
vn 0.763239 -0.330097 0.555430
vn 0.713559 0.000403 0.700595
vn 0.227932 -0.002054 0.973675
vn 0.472006 0.257701 0.843090
vn 0.713488 0.416689 -0.563299
vn 0.627305 0.730818 0.269059
vn 0.945555 0.274186 0.175351
vn -0.988602 0.102983 0.109824
vn -0.655704 0.070763 -0.751695
vn 0.647314 0.002691 -0.762219
vn 0.998462 0.006387 0.055070
vn 0.562902 -0.374425 -0.736850
vn 0.905908 -0.423334 -0.010916
vn 0.368368 -0.904348 -0.215544
vn 0.009034 0.097459 -0.995199
vn 0.000027 0.052080 0.998643
s 1
g pCube1
usemtl aiStandardSurface2SG
f 2/1/1 1/65/2 47/97/3 46/52/4
s 2
f 1/66/5 6/63/6 48/13/7 47/96/8
f 4/2/9 3/67/10 9/72/11 8/57/12
s 1
f 3/68/13 2/1/1 10/3/14 9/71/15
s 2
f 6/63/6 5/69/16 59/103/17 58/64/18
f 5/69/19 4/2/9 60/22/20 59/103/21
f 8/57/12 7/70/22 127/148/23 126/23/24
f 7/70/22 14/59/25 128/30/26 127/148/23
s 1
f 12/4/27 11/73/28 53/100/29 52/49/30
f 11/73/28 10/3/14 54/14/31 53/100/29
s 2
f 14/59/25 13/74/32 65/107/33 70/60/34
s 1
f 13/75/35 12/4/27 66/24/36 65/106/37
s 2
f 16/5/38 15/76/39 63/105/40 62/56/41
f 15/76/42 20/50/43 64/19/44 63/105/45
f 18/6/46 17/77/47 27/83/48 26/55/49
f 17/77/47 16/5/38 28/7/50 27/83/48
f 20/50/43 19/78/51 31/87/52 30/51/53
f 19/79/51 18/6/46 32/10/54 31/86/52
f 22/8/55 21/80/56 123/146/57 122/32/58
f 21/80/56 28/7/50 124/21/59 123/146/57
f 24/9/60 23/81/61 83/118/62 82/45/63
f 23/81/61 22/8/55 84/28/64 83/118/62
f 26/55/49 25/82/65 39/91/66 38/11/67
f 25/82/65 24/9/60 40/12/68 39/91/66
f 30/51/53 29/84/69 93/126/70 92/20/71
s 10
f 29/85/72 34/53/73 94/38/74 93/125/75
f 34/53/73 33/88/76 37/90/77 36/54/78
s 2
f 33/88/79 32/10/54 38/11/80 37/90/81
s 10
f 36/54/82 35/89/83 115/142/84 114/39/85
f 35/89/83 42/47/86 116/40/87 115/142/84
f 42/47/88 41/92/89 85/119/90 90/48/91
s 2
f 41/92/92 40/12/93 86/33/94 85/119/95
s 10
f 44/15/96 43/93/97 97/129/98 96/62/99
s 2
f 43/94/100 48/13/7 98/18/101 97/128/102
s 1
f 46/52/4 45/95/103 55/101/104 54/14/31
s 10
f 45/95/105 44/15/96 56/16/106 55/101/107
f 50/17/108 49/98/109 119/144/110 118/41/111
f 49/98/109 56/16/106 120/37/112 119/144/110
s 1
f 52/49/30 51/99/113 111/140/114 110/25/115
s 10
f 51/99/116 50/17/108 112/42/117 111/140/118
s 2
f 58/64/18 57/102/119 91/124/120 98/18/101
f 57/102/119 64/19/44 92/20/71 91/124/120
f 62/56/41 61/104/121 125/147/122 124/21/59
f 61/104/121 60/22/20 126/23/24 125/147/122
f 68/26/123 67/108/124 109/139/125 108/44/126
s 1
f 67/109/127 66/24/36 110/25/115 109/138/128
s 2
f 70/60/34 69/110/129 77/114/130 76/58/131
f 69/110/132 68/26/123 78/27/133 77/114/134
f 72/29/135 71/111/136 103/133/137 102/36/138
f 71/111/136 78/27/133 104/43/139 103/133/137
f 74/31/140 73/112/141 79/115/142 84/28/64
f 73/112/143 72/29/135 80/34/144 79/115/145
f 76/58/131 75/113/146 121/145/147 128/30/26
f 75/113/146 74/31/140 122/32/58 121/145/147
f 82/45/63 81/116/148 87/121/149 86/33/94
f 81/117/148 80/34/144 88/35/150 87/120/149
s 10
f 90/48/91 89/122/151 101/132/152 100/46/153
s 2
f 89/123/154 88/35/150 102/36/138 101/131/155
s 10
f 96/62/99 95/127/156 113/141/157 120/37/112
f 95/127/156 94/38/74 114/39/85 113/141/157
f 100/46/153 99/130/158 117/143/159 116/40/87
f 99/130/158 106/61/160 118/41/111 117/143/159
f 106/61/160 105/134/161 107/137/162 112/42/117
s 2
f 105/135/163 104/43/139 108/44/126 107/136/164
f 22/8/55 122/32/58 74/31/140 84/28/64
f 40/12/68 24/9/60 82/45/63 86/33/94
s 10
f 100/46/153 116/40/87 42/47/86 90/48/91
s 1
f 12/4/27 52/49/30 110/25/115 66/24/36
s 2
f 72/29/135 102/36/138 88/35/150 80/34/144
f 92/20/71 64/19/44 20/50/43 30/51/53
s 1
f 46/52/4 54/14/31 10/3/14 2/1/1
s 10
f 34/53/73 36/54/82 114/39/85 94/38/74
s 2
f 18/6/46 26/55/49 38/11/67 32/10/54
f 62/56/41 124/21/59 28/7/50 16/5/38
f 4/2/9 8/57/12 126/23/24 60/22/20
f 76/58/131 128/30/26 14/59/25 70/60/34
f 68/26/123 108/44/126 104/43/139 78/27/133
s 10
f 50/17/108 118/41/111 106/61/160 112/42/117
f 96/62/99 120/37/112 56/16/106 44/15/96
s 2
f 48/13/7 6/63/6 58/64/18 98/18/101
f 5/69/16 6/63/6 1/66/5 129/150/165
s 1
f 1/65/2 2/1/1 3/68/13 129/149/166
s 2
f 3/67/10 4/2/9 5/69/19 129/150/167
f 13/74/32 14/59/25 7/70/22 130/152/168
f 7/70/22 8/57/12 9/72/11 130/152/168
s 1
f 9/71/15 10/3/14 11/73/28 130/151/169
f 11/73/28 12/4/27 13/75/35 130/151/169
s 2
f 19/78/51 20/50/43 15/76/42 131/153/170
f 15/76/39 16/5/38 17/77/47 131/153/170
f 17/77/47 18/6/46 19/79/51 131/153/170
f 27/83/48 28/7/50 21/80/56 132/154/171
f 21/80/56 22/8/55 23/81/61 132/154/171
f 23/81/61 24/9/60 25/82/65 132/154/171
f 25/82/65 26/55/49 27/83/48 132/154/171
s 10
f 33/88/76 34/53/73 29/85/72 133/156/172
s 2
f 29/84/69 30/51/53 31/87/52 133/155/173
f 31/86/52 32/10/54 33/88/79 133/156/174
s 10
f 41/92/89 42/47/88 35/89/175 134/157/176
f 35/89/175 36/54/78 37/90/77 134/157/176
s 2
f 37/90/81 38/11/80 39/91/177 134/157/178
f 39/91/177 40/12/93 41/92/92 134/157/178
f 47/96/8 48/13/7 43/94/100 135/159/179
s 10
f 43/93/97 44/15/96 45/95/105 135/158/180
s 1
f 45/95/103 46/52/4 47/97/3 135/158/181
s 10
f 55/101/107 56/16/106 49/98/109 136/160/182
f 49/98/109 50/17/108 51/99/116 136/160/182
s 1
f 51/99/113 52/49/30 53/100/29 136/160/183
f 53/100/29 54/14/31 55/101/104 136/160/183
s 2
f 63/105/45 64/19/44 57/102/119 137/161/184
f 57/102/119 58/64/18 59/103/17 137/161/184
f 59/103/21 60/22/20 61/104/121 137/161/185
f 61/104/121 62/56/41 63/105/40 137/161/185
f 69/110/129 70/60/34 65/107/33 138/163/186
s 1
f 65/106/37 66/24/36 67/109/127 138/162/187
s 2
f 67/108/124 68/26/123 69/110/132 138/163/188
f 77/114/134 78/27/133 71/111/136 139/164/189
f 71/111/136 72/29/135 73/112/143 139/164/189
f 73/112/141 74/31/140 75/113/146 139/164/190
f 75/113/146 76/58/131 77/114/130 139/164/190
f 83/118/62 84/28/64 79/115/142 140/165/191
f 79/115/145 80/34/144 81/117/148 140/165/191
f 81/116/148 82/45/63 83/118/62 140/165/191
s 10
f 89/122/151 90/48/91 85/119/90 141/166/192
s 2
f 85/119/95 86/33/94 87/121/149 141/166/193
f 87/120/149 88/35/150 89/123/154 141/167/194
f 97/128/102 98/18/101 91/124/120 142/169/195
f 91/124/120 92/20/71 93/126/70 142/169/195
s 10
f 93/125/75 94/38/74 95/127/156 142/168/196
f 95/127/156 96/62/99 97/129/98 142/168/196
f 105/134/161 106/61/160 99/130/158 143/171/197
f 99/130/158 100/46/153 101/132/152 143/171/197
s 2
f 101/131/155 102/36/138 103/133/137 143/170/198
f 103/133/137 104/43/139 105/135/163 143/170/198
s 10
f 111/140/118 112/42/117 107/137/162 144/173/199
s 2
f 107/136/164 108/44/126 109/139/125 144/172/200
s 1
f 109/138/128 110/25/115 111/140/114 144/173/201
s 10
f 119/144/110 120/37/112 113/141/157 145/174/202
f 113/141/157 114/39/85 115/142/84 145/174/202
f 115/142/84 116/40/87 117/143/159 145/174/202
f 117/143/159 118/41/111 119/144/110 145/174/202
s 2
f 127/148/23 128/30/26 121/145/147 146/175/203
f 121/145/147 122/32/58 123/146/57 146/175/203
f 123/146/57 124/21/59 125/147/122 146/175/203
f 125/147/122 126/23/24 127/148/23 146/175/203
