# This file uses centimeters as units for non-parametric coordinates.

g default
v -0.068222 -0.040634 5.849955
v 0.068222 -0.040634 5.849955
v -0.068222 0.040634 5.849955
v 0.068222 0.040634 5.849955
v -0.282690 0.052873 4.886121
v 0.282690 0.052873 4.886121
v 0.282690 -0.052873 4.886121
v -0.282690 -0.052873 4.886121
v -0.498264 0.160744 -0.456981
v -0.496716 0.161143 -0.484801
v -0.489890 0.161389 -0.511815
v -0.478038 0.161472 -0.537032
v 0.498264 0.160744 -0.456981
v 0.496716 0.161143 -0.484801
v 0.489890 0.161389 -0.511815
v 0.478038 0.161472 -0.537032
v -0.498264 -0.160744 -0.456981
v -0.496716 -0.161143 -0.484801
v -0.489890 -0.161389 -0.511815
v -0.478038 -0.161472 -0.537032
v 0.498264 -0.160744 -0.456981
v 0.496716 -0.161143 -0.484801
v 0.489890 -0.161389 -0.511815
v 0.478038 -0.161472 -0.537032
v -0.280358 0.121265 -0.909105
v -0.282602 0.121265 -0.884025
v -0.289261 0.121265 -0.859742
v -0.300124 0.121265 -0.837026
v 0.280358 0.121265 -0.909105
v 0.282602 0.121265 -0.884025
v 0.289261 0.121265 -0.859742
v 0.300124 0.121265 -0.837026
v 0.280358 -0.121265 -0.909105
v 0.282602 -0.121265 -0.884025
v 0.289261 -0.121265 -0.859742
v 0.300124 -0.121265 -0.837026
v -0.280358 -0.121265 -0.909105
v -0.282602 -0.121265 -0.884025
v -0.289261 -0.121265 -0.859742
v -0.300124 -0.121265 -0.837026
v -0.280358 0.121265 -2.817853
v -0.280358 0.121265 -2.794576
v -0.280358 0.121265 -2.771298
v -0.280358 0.121265 -2.748021
v 0.280358 0.121265 -2.817853
v 0.280358 0.121265 -2.794576
v 0.280358 0.121265 -2.771298
v 0.280358 0.121265 -2.748021
v 0.280358 -0.121265 -2.817853
v 0.280358 -0.121265 -2.794576
v 0.280358 -0.121265 -2.771298
v 0.280358 -0.121265 -2.748021
v -0.280358 -0.121265 -2.817853
v -0.280358 -0.121265 -2.794576
v -0.280358 -0.121265 -2.771298
v -0.280358 -0.121265 -2.748021
v -0.270596 0.109417 -3.634282
v -0.284942 0.121850 -3.624456
v 0.270367 0.109139 -3.634282
v 0.285050 0.121864 -3.624226
v 0.270596 -0.109417 -3.634282
v 0.284942 -0.121850 -3.624456
v -0.270367 -0.109139 -3.634282
v -0.285050 -0.121864 -3.624226
v -0.491206 0.148204 -3.100705
v -0.503860 0.149821 -3.133233
v -0.498060 0.149080 -3.167649
v 0.491206 0.148204 -3.100705
v 0.503860 0.149821 -3.133233
v 0.498060 0.149080 -3.167649
v 0.491206 -0.148204 -3.100705
v 0.503860 -0.149821 -3.133233
v 0.498060 -0.149080 -3.167649
v -0.491206 -0.148204 -3.100705
v -0.503860 -0.149821 -3.133233
v -0.498060 -0.149080 -3.167649
vt 0.911124 0.990245
vt 0.909376 0.848338
vt 0.924573 0.848339
vt 0.922803 0.990246
vt 0.893929 0.079818
vt 0.940132 0.079821
vt 0.940190 0.075817
vt 0.893872 0.075814
vt 0.940226 0.071813
vt 0.893837 0.071809
vt 0.940238 0.067808
vt 0.893825 0.067805
vt 0.899608 0.017679
vt 0.934463 0.017682
vt 0.934463 0.014063
vt 0.899608 0.014060
vt 0.257465 0.509233
vt 0.195407 0.508752
vt 0.257708 0.502858
vt 0.195466 0.502368
vt 0.197343 0.035207
vt 0.257873 0.035344
vt 0.257857 0.029453
vt 0.197371 0.029315
vt 0.046810 0.823819
vt 0.046348 0.784623
vt 0.050572 0.823775
vt 0.050110 0.784579
vt 0.107075 0.779554
vt 0.107639 0.827457
vt 0.113283 0.827652
vt 0.112712 0.779226
vt 0.118922 0.827466
vt 0.118354 0.779279
vt 0.199872 0.782720
vt 0.200295 0.822108
vt 0.203147 0.820018
vt 0.202705 0.784697
vt 0.968323 0.155967
vt 0.953125 0.155970
vt 0.954858 0.014062
vt 0.966538 0.014060
vt 0.937761 0.924491
vt 0.983964 0.924483
vt 0.984023 0.928487
vt 0.937704 0.928496
vt 0.984058 0.932492
vt 0.937670 0.932500
vt 0.984071 0.936496
vt 0.937659 0.936504
vt 0.978302 0.986623
vt 0.943446 0.986629
vt 0.403704 0.511795
vt 0.943447 0.990248
vt 0.402235 0.505632
vt 0.463858 0.501199
vt 0.401459 0.499275
vt 0.463142 0.494993
vt 0.397843 0.034625
vt 0.055593 0.033704
vt 0.450694 0.819091
vt 0.458692 0.027796
vt 0.446932 0.819135
vt 0.446470 0.779939
vt 0.443170 0.819180
vt 0.442708 0.779984
vt 0.386205 0.824205
vt 0.385641 0.776301
vt 0.380568 0.824533
vt 0.379997 0.776107
vt 0.374925 0.824480
vt 0.374358 0.776293
vt 0.293408 0.821038
vt 0.292985 0.781650
vt 0.290575 0.819062
vt 0.290133 0.783740
vt 0.650648 0.980546
vt 0.630892 0.980544
vt 0.599847 0.840975
vt 0.681710 0.840980
vt 0.568678 0.067173
vt 0.712968 0.067182
vt 0.712744 0.063153
vt 0.568903 0.063145
vt 0.711756 0.059241
vt 0.569891 0.059233
vt 0.710041 0.055590
vt 0.571608 0.055582
vt 0.597371 0.011758
vt 0.684283 0.011763
vt 0.598944 0.008469
vt 0.293730 0.959834
vt 0.293688 0.956072
vt 0.203068 0.957087
vt 0.293646 0.952310
vt 0.203026 0.953325
vt 0.168436 0.907787
vt 0.327208 0.906008
vt 0.329194 0.900721
vt 0.166331 0.902546
vt 0.328194 0.895169
vt 0.167207 0.896972
vt 0.200804 0.822666
vt 0.292922 0.821597
vt 0.759295 0.848326
vt 0.841275 0.848334
vt 0.810162 0.988099
vt 0.790377 0.988096
vt 0.728119 0.073414
vt 0.872615 0.073430
vt 0.728344 0.069380
vt 0.872391 0.069395
vt 0.729334 0.065463
vt 0.871402 0.065478
vt 0.731053 0.061806
vt 0.869684 0.061821
vt 0.756855 0.017921
vt 0.843891 0.017930
vt 0.842316 0.014636
vt 0.758431 0.014628
vt 0.199592 0.647687
vt 0.290212 0.646672
vt 0.199634 0.651449
vt 0.290254 0.650434
vt 0.324844 0.695972
vt 0.166073 0.697751
vt 0.164086 0.703037
vt 0.326949 0.701212
vt 0.165086 0.708590
vt 0.326074 0.706786
vt 0.292476 0.781092
vt 0.200358 0.782162
vt 0.650647 0.992313
vt 0.630891 0.992312
vt 0.682710 0.008474
vt 0.978302 0.990242
vt 0.050168 0.507727
vt 0.196048 0.514996
vt 0.256526 0.515457
vt 0.397794 0.028733
vt 0.290170 0.642910
vt 0.450232 0.779895
vt 0.042586 0.784667
vt 0.199550 0.643925
vt 0.203110 0.960849
vt 0.043048 0.823864
vt 0.053586 0.495463
vt 0.458765 0.033686
vt 0.055636 0.027814
vt 0.464602 0.507464
vt 0.052429 0.501704
vn 0.000000 0.000000 1.000000
vn 0.000000 0.000000 1.000000
vn 0.000000 0.000000 1.000000
vn 0.000000 0.000000 1.000000
vn 0.000000 0.999919 0.012697
vn 0.000000 0.999919 0.012697
vn 0.000000 0.999806 0.019708
vn 0.000000 0.999806 0.019708
vn 0.976126 -0.000000 0.217203
vn 0.998576 -0.000000 0.053349
vn 0.998576 -0.000000 0.053349
vn 0.976126 -0.000000 0.217203
vn 0.000000 -0.999806 0.019708
vn 0.000000 -0.999806 0.019708
vn 0.000000 -0.999919 0.012697
vn 0.000000 -0.999919 0.012697
vn -0.998576 -0.000000 0.053349
vn -0.998576 -0.000000 0.053349
vn -0.976126 -0.000000 0.217203
vn -0.976126 -0.000000 0.217203
vn 0.000000 0.999797 0.020147
vn 0.000000 0.999797 0.020147
vn 0.000000 -0.999797 0.020147
vn 0.000000 -0.999797 0.020147
vn 0.999218 0.000000 0.039551
vn 0.999218 0.000000 0.039551
vn -0.999218 0.000000 0.039551
vn -0.999218 0.000000 0.039551
vn -0.941469 0.000000 -0.337098
vn -0.864457 0.000000 -0.502707
vn -0.864457 0.000000 -0.502707
vn -0.941469 0.000000 -0.337098
vn -0.988416 0.000000 -0.151768
vn -0.988416 0.000000 -0.151768
vn 0.000000 0.993903 -0.110254
vn 0.000000 0.999976 0.006980
vn 0.000000 0.999976 0.006980
vn 0.000000 0.993903 -0.110254
vn 0.000000 0.999928 0.012034
vn 0.000000 0.999928 0.012034
vn 0.000000 -0.999976 0.006980
vn 0.000000 -0.993903 -0.110254
vn 0.000000 -0.993903 -0.110254
vn 0.000000 -0.999976 0.006980
vn 0.000000 -0.999928 0.012034
vn 0.000000 -0.999928 0.012034
vn 0.864457 0.000000 -0.502707
vn 0.941469 0.000000 -0.337098
vn 0.941469 0.000000 -0.337098
vn 0.864457 0.000000 -0.502707
vn 0.988416 0.000000 -0.151768
vn 0.988416 0.000000 -0.151768
vn 0.000000 0.991651 -0.128950
vn 0.000000 0.991651 -0.128950
vn 0.862586 0.000000 -0.505910
vn 0.862586 0.000000 -0.505910
vn 0.000000 -0.991651 -0.128950
vn 0.000000 -0.991651 -0.128950
vn -0.862586 0.000000 -0.505910
vn -0.862586 0.000000 -0.505910
vn 0.000000 1.000000 -0.000000
vn 0.000000 1.000000 -0.000000
vn 0.000000 1.000000 0.000000
vn 0.000000 1.000000 -0.000000
vn 0.000000 1.000000 -0.000000
vn 0.000000 1.000000 0.000000
vn 0.936996 0.000000 -0.349339
vn 0.936996 0.000000 -0.349339
vn 0.999999 0.000000 -0.001204
vn 0.984123 0.000000 -0.177487
vn 0.984123 0.000000 -0.177487
vn 0.999999 0.000000 -0.001204
vn 0.000000 -1.000000 -0.000000
vn 0.000000 -1.000000 -0.000000
vn 0.000000 -1.000000 0.000000
vn 0.000000 -1.000000 -0.000000
vn 0.000000 -1.000000 -0.000000
vn 0.000000 -1.000000 0.000000
vn -0.936996 0.000000 -0.349339
vn -0.936996 0.000000 -0.349339
vn -0.984123 0.000000 -0.177487
vn -0.984123 0.000000 -0.177487
vn -0.999999 0.000000 -0.001204
vn -0.999999 0.000000 -0.001204
vn 0.000000 1.000000 0.000000
vn 0.000000 1.000000 0.000000
vn 1.000000 0.000000 0.000000
vn 1.000000 0.000000 0.000000
vn 0.000000 -1.000000 0.000000
vn 0.000000 -1.000000 0.000000
vn -1.000000 0.000000 0.000000
vn -1.000000 0.000000 0.000000
vn 0.000000 1.000000 0.000000
vn 0.000000 1.000000 0.000000
vn 0.000000 0.995853 0.090979
vn 0.000000 1.000000 0.000000
vn 0.000000 1.000000 0.000000
vn 0.000000 0.995853 0.090979
vn 1.000000 0.000000 0.000000
vn 1.000000 0.000000 0.000000
vn 1.000000 0.000000 0.000000
vn 1.000000 0.000000 0.000000
vn 1.000000 0.000000 0.000000
vn 1.000000 0.000000 0.000000
vn 0.000000 -1.000000 0.000000
vn 0.000000 -1.000000 0.000000
vn 0.000000 -0.995853 0.090979
vn 0.000000 -1.000000 0.000000
vn 0.000000 -1.000000 0.000000
vn 0.000000 -0.995853 0.090979
vn -1.000000 0.000000 0.000000
vn -1.000000 0.000000 0.000000
vn -1.000000 0.000000 0.000000
vn -1.000000 0.000000 0.000000
vn -1.000000 0.000000 0.000000
vn -1.000000 0.000000 0.000000
vn 0.000310 0.620042 -0.784568
vn 0.000310 0.620042 -0.784568
vn 0.000310 0.620042 -0.784568
vn 0.000310 0.620042 -0.784569
vn -0.565059 -0.000560 -0.825050
vn -0.565059 -0.000560 -0.825051
vn -0.565059 -0.000560 -0.825050
vn -0.565059 -0.000560 -0.825050
vn 0.565059 0.000560 -0.825050
vn 0.565059 0.000560 -0.825051
vn 0.565059 0.000560 -0.825051
vn 0.565059 0.000560 -0.825050
vn -0.000310 -0.620042 -0.784568
vn -0.000310 -0.620042 -0.784568
vn -0.000310 -0.620042 -0.784568
vn -0.000310 -0.620042 -0.784569
vn 0.000000 0.000000 -1.000000
vn 0.000000 0.000000 -1.000000
vn 0.000000 0.000000 -1.000000
vn 0.000000 0.000000 -1.000000
vn 0.000000 0.996449 0.084199
vn 0.000000 0.996449 0.084199
vn 0.801755 0.000000 0.597653
vn 0.801755 0.000000 0.597653
vn 0.818339 0.000000 0.574736
vn 0.818339 0.000000 0.574736
vn 0.000000 -0.996449 0.084199
vn 0.000000 -0.996449 0.084199
vn -0.801755 0.000000 0.597653
vn -0.801755 0.000000 0.597653
vn -0.818339 0.000000 0.574736
vn -0.818339 0.000000 0.574736
vn 0.000000 0.998507 -0.054629
vn 0.000000 0.998507 -0.054629
vn 0.000000 0.998228 -0.059503
vn 0.000000 0.998228 -0.059503
vn 0.914430 0.000000 -0.404744
vn 0.914430 0.000000 -0.404744
vn 0.906228 0.000000 -0.422789
vn 0.906228 0.000000 -0.422789
vn 0.000000 -0.998507 -0.054629
vn 0.000000 -0.998507 -0.054629
vn 0.000000 -0.998228 -0.059503
vn 0.000000 -0.998228 -0.059503
vn -0.914430 0.000000 -0.404744
vn -0.914430 0.000000 -0.404744
vn -0.906228 0.000000 -0.422789
vn -0.906228 0.000000 -0.422789
vn -0.931961 0.000000 0.362559
vn -0.931961 0.000000 0.362559
vn -0.986095 0.000000 -0.166184
vn -0.986095 0.000000 -0.166184
vn 0.000000 0.999948 0.010182
vn 0.000000 0.999948 0.010182
vn 0.986095 0.000000 -0.166184
vn 0.986095 0.000000 -0.166184
vn 0.931961 0.000000 0.362559
vn 0.931961 0.000000 0.362559
vn 0.000000 -0.999948 0.010182
vn 0.000000 -0.999948 0.010182
s off
g pCube1
f 1/133/1 2/134/2 4/78/3 3/77/4
s 1
f 3/77/5 4/78/6 6/79/7 5/80/8
s 2
f 2/1/9 7/2/10 6/3/11 4/4/12
s 3
f 8/105/13 7/106/14 2/107/15 1/108/16
s 4
f 5/39/17 8/40/18 1/41/19 3/42/20
s 1
f 5/80/8 6/79/7 13/81/21 9/82/22
s 3
f 17/109/23 21/110/24 7/106/14 8/105/13
s 2
f 6/3/11 7/2/10 21/5/25 13/6/26
s 4
f 17/43/27 8/40/18 5/39/17 9/44/28
f 11/47/29 12/49/30 20/50/31 19/48/32
f 9/44/28 10/45/33 18/46/34 17/43/27
f 10/45/33 11/47/29 19/48/32 18/46/34
s 1
f 12/87/35 11/85/36 15/86/37 16/88/38
f 11/85/36 10/83/39 14/84/40 15/86/37
f 10/83/39 9/82/22 13/81/21 14/84/40
s 3
f 19/113/41 20/115/42 24/116/43 23/114/44
f 17/109/23 18/111/45 22/112/46 21/110/24
f 18/111/45 19/113/41 23/114/44 22/112/46
s 2
f 16/11/47 15/9/48 23/10/49 24/12/50
f 15/9/48 14/7/51 22/8/52 23/10/49
f 14/7/51 13/6/26 21/5/25 22/8/52
s 1
f 12/87/35 16/88/38 32/89/53 28/90/54
s 2
f 16/11/47 24/12/50 36/13/55 32/14/56
s 3
f 24/116/43 20/115/42 40/117/57 36/118/58
s 4
f 20/50/31 12/49/30 28/51/59 40/52/60
s 1
f 27/135/61 28/90/54 32/89/53 31/91/62
f 25/57/63 26/55/64 30/17/65 29/19/66
f 26/55/64 27/53/61 31/139/62 30/17/65
s 2
f 31/15/67 32/14/56 36/13/55 35/16/68
f 29/19/69 30/17/70 34/18/71 33/20/72
f 30/17/70 31/139/67 35/138/68 34/18/71
s 3
f 35/119/73 36/118/58 40/117/57 39/120/74
f 33/20/75 34/18/76 38/151/77 37/147/78
f 34/18/76 35/138/73 39/137/74 38/151/77
s 4
f 28/51/59 27/136/79 39/54/80 40/52/60
f 27/53/79 26/55/81 38/56/82 39/150/80
f 26/55/81 25/57/83 37/58/84 38/56/82
s 1
f 25/57/63 29/19/66 48/22/85 44/59/86
s 2
f 29/19/69 33/20/72 52/21/87 48/22/88
s 3
f 33/20/75 37/147/78 56/60/89 52/21/90
s 4
f 37/58/84 25/57/83 44/59/91 56/148/92
s 1
f 43/140/93 44/59/86 48/22/85 47/23/94
f 41/95/95 42/93/96 46/94/97 45/96/98
f 42/93/96 43/92/93 47/145/94 46/94/97
s 2
f 47/23/99 48/22/88 52/21/87 51/24/100
f 45/27/101 46/25/102 50/26/103 49/28/104
f 46/25/102 47/146/99 51/143/100 50/26/103
s 3
f 51/24/105 52/21/90 56/60/89 55/149/106
f 49/123/107 50/121/108 54/122/109 53/124/110
f 50/121/108 51/144/105 55/141/106 54/122/109
s 4
f 44/59/91 43/140/111 55/62/112 56/148/92
f 43/61/111 42/63/113 54/64/114 55/142/112
f 42/63/113 41/65/115 53/66/116 54/64/114
s off
f 57/75/117 58/104/118 60/103/119 59/37/120
f 58/73/121 57/75/122 63/76/123 64/74/124
f 59/37/125 60/36/126 62/35/127 61/38/128
f 61/38/129 62/132/130 64/131/131 63/76/132
f 57/75/133 59/37/134 61/38/135 63/76/136
s 1
f 41/95/95 45/96/98 68/97/137 65/98/138
s 9
f 45/27/139 49/28/140 71/29/141 68/30/142
s 3
f 49/123/107 53/124/110 74/125/143 71/126/144
s 10
f 53/66/145 41/65/146 65/67/147 74/68/148
s 1
f 67/101/149 70/102/150 60/103/151 58/104/152
s 12
f 70/33/153 73/34/154 62/35/155 60/36/156
s 3
f 73/129/157 76/130/158 64/131/159 62/132/160
s 14
f 76/72/161 67/71/162 58/73/163 64/74/164
s 10
f 65/67/147 66/69/165 75/70/166 74/68/148
s 14
f 66/69/167 67/71/162 76/72/161 75/70/168
s 1
f 67/101/149 66/99/169 69/100/170 70/102/150
f 66/99/169 65/98/138 68/97/137 69/100/170
s 12
f 70/33/153 69/31/171 72/32/172 73/34/154
s 9
f 69/31/173 68/30/142 71/29/141 72/32/174
s 3
f 73/129/157 72/127/175 75/128/176 76/130/158
f 72/127/175 71/126/144 74/125/143 75/128/176
