# This file uses centimeters as units for non-parametric coordinates.

mtllib tree2.mtl
g default
v 0.353553 0.000000 -0.353553
v 0.000000 0.000000 -0.500000
v -0.353553 0.000000 -0.353553
v -0.500000 0.000000 0.000000
v -0.353553 0.000000 0.353553
v 0.000000 0.000000 0.500000
v 0.353553 0.000000 0.353553
v 0.500000 0.000000 0.000000
v 0.353553 1.000000 -0.353553
v 0.000000 1.000000 -0.500000
v -0.353553 1.000000 -0.353553
v -0.500000 1.000000 0.000000
v -0.353553 1.000000 0.353553
v 0.000000 1.000000 0.500000
v 0.353553 1.000000 0.353553
v 0.500000 1.000000 0.000000
v 0.353553 2.000000 -0.353553
v 0.000000 2.000000 -0.500000
v -0.353553 2.000000 -0.353553
v -0.500000 2.000000 0.000000
v -0.353553 2.000000 0.353553
v 0.000000 2.000000 0.500000
v 0.353553 2.000000 0.353553
v 0.500000 2.000000 0.000000
v 0.353553 3.000000 -0.353553
v 0.000000 3.000000 -0.500000
v -0.353553 3.000000 -0.353553
v -0.500000 3.000000 0.000000
v -0.353553 3.000000 0.353553
v 0.000000 3.000000 0.500000
v 0.353553 3.000000 0.353553
v 0.500000 3.000000 0.000000
v 1.251401 4.000000 -1.251401
v -0.000000 4.000000 -1.769748
v -1.251401 4.000000 -1.251401
v -1.769748 4.000000 -0.000000
v -1.251401 4.000000 1.251401
v -0.000000 4.000000 1.769748
v 1.251401 4.000000 1.251401
v 1.769748 4.000000 -0.000000
v 1.627718 5.000000 -1.627718
v -0.000000 5.000000 -2.301942
v -1.627718 5.000000 -1.627718
v -2.301942 5.000000 -0.000000
v -1.627718 5.000000 1.627718
v -0.000000 5.000000 2.301942
v 1.627718 5.000000 1.627718
v 2.301942 5.000000 -0.000000
v 1.627718 6.000000 -1.627718
v -0.000000 6.000000 -2.301943
v -1.627718 6.000000 -1.627718
v -2.301940 6.000000 -0.000000
v -1.627718 6.000000 1.627718
v -0.000000 6.000000 2.301943
v 1.627718 6.000000 1.627718
v 2.301940 6.000000 -0.000000
v 1.251401 7.000000 -1.251401
v -0.000000 7.000000 -1.769749
v -1.251401 7.000000 -1.251401
v -1.769747 7.000000 -0.000000
v -1.251401 7.000000 1.251401
v -0.000000 7.000000 1.769749
v 1.251401 7.000000 1.251401
v 1.769747 7.000000 -0.000000
v 0.175176 7.654897 -0.175175
v -0.000000 7.654897 -0.247738
v -0.175176 7.654897 -0.175175
v -0.247738 7.654897 -0.000000
v -0.175176 7.654897 0.175176
v -0.000000 7.654897 0.247739
v 0.175176 7.654897 0.175176
v 0.247739 7.654897 -0.000000
v 0.000000 0.000000 0.000000
v -0.000000 7.654897 -0.000000
vt 0.610485 0.045765
vt 0.500000 0.000000
vt 0.389515 0.045765
vt 0.343750 0.156250
vt 0.389515 0.266735
vt 0.500000 0.312500
vt 0.610485 0.266735
vt 0.656250 0.156250
vt 0.375000 0.312500
vt 0.406250 0.312500
vt 0.437500 0.312500
vt 0.468750 0.312500
vt 0.500000 0.312500
vt 0.531250 0.312500
vt 0.562500 0.312500
vt 0.593750 0.312500
vt 0.625000 0.312500
vt 0.375000 0.359492
vt 0.406250 0.359492
vt 0.437500 0.359492
vt 0.468750 0.359492
vt 0.500000 0.359492
vt 0.531250 0.359492
vt 0.562500 0.359492
vt 0.593750 0.359492
vt 0.625000 0.359492
vt 0.375000 0.406485
vt 0.406250 0.406485
vt 0.437500 0.406485
vt 0.468750 0.406485
vt 0.500000 0.406485
vt 0.531250 0.406485
vt 0.562500 0.406485
vt 0.593750 0.406485
vt 0.625000 0.406485
vt 0.375000 0.453477
vt 0.406250 0.453477
vt 0.437500 0.453477
vt 0.468750 0.453477
vt 0.500000 0.453477
vt 0.531250 0.453477
vt 0.562500 0.453477
vt 0.593750 0.453477
vt 0.625000 0.453477
vt 0.375000 0.500470
vt 0.406250 0.500470
vt 0.437500 0.500470
vt 0.468750 0.500470
vt 0.500000 0.500470
vt 0.531250 0.500470
vt 0.562500 0.500470
vt 0.593750 0.500470
vt 0.625000 0.500470
vt 0.375000 0.547462
vt 0.406250 0.547462
vt 0.437500 0.547462
vt 0.468750 0.547462
vt 0.500000 0.547462
vt 0.531250 0.547462
vt 0.562500 0.547462
vt 0.593750 0.547462
vt 0.625000 0.547462
vt 0.375000 0.594455
vt 0.406250 0.594455
vt 0.437500 0.594455
vt 0.468750 0.594455
vt 0.500000 0.594455
vt 0.531250 0.594455
vt 0.562500 0.594455
vt 0.593750 0.594455
vt 0.625000 0.594455
vt 0.375000 0.641447
vt 0.406250 0.641447
vt 0.437500 0.641447
vt 0.468750 0.641447
vt 0.500000 0.641447
vt 0.531250 0.641447
vt 0.562500 0.641447
vt 0.593750 0.641447
vt 0.625000 0.641447
vt 0.375000 0.688440
vt 0.406250 0.688440
vt 0.437500 0.688440
vt 0.468750 0.688440
vt 0.500000 0.688440
vt 0.531250 0.688440
vt 0.562500 0.688440
vt 0.593750 0.688440
vt 0.625000 0.688440
vt 0.610485 0.733265
vt 0.500000 0.687500
vt 0.389515 0.733265
vt 0.343750 0.843750
vt 0.389515 0.954235
vt 0.500000 1.000000
vt 0.610485 0.954235
vt 0.656250 0.843750
vt 0.500000 0.150000
vt 0.500000 0.837500
vn 0.382683 0.000000 -0.923880
vn 0.382683 0.000000 -0.923880
vn 0.382683 0.000000 -0.923880
vn 0.382683 0.000000 -0.923880
vn -0.382683 0.000000 -0.923880
vn -0.382683 0.000000 -0.923880
vn -0.382683 0.000000 -0.923880
vn -0.382683 0.000000 -0.923880
vn -0.923880 0.000000 -0.382683
vn -0.923880 0.000000 -0.382683
vn -0.923880 0.000000 -0.382683
vn -0.923880 0.000000 -0.382683
vn -0.923880 0.000000 0.382683
vn -0.923880 0.000000 0.382683
vn -0.923880 0.000000 0.382683
vn -0.923880 0.000000 0.382683
vn -0.382683 0.000000 0.923880
vn -0.382683 0.000000 0.923880
vn -0.382683 0.000000 0.923880
vn -0.382683 0.000000 0.923880
vn 0.382683 0.000000 0.923880
vn 0.382683 0.000000 0.923880
vn 0.382683 0.000000 0.923880
vn 0.382683 0.000000 0.923880
vn 0.923880 0.000000 0.382683
vn 0.923880 0.000000 0.382683
vn 0.923880 0.000000 0.382683
vn 0.923880 0.000000 0.382683
vn 0.923880 0.000000 -0.382684
vn 0.923880 0.000000 -0.382684
vn 0.923880 0.000000 -0.382684
vn 0.923880 0.000000 -0.382684
vn 0.382683 0.000000 -0.923880
vn 0.382683 0.000000 -0.923880
vn -0.382683 0.000000 -0.923880
vn -0.382683 0.000000 -0.923880
vn -0.923880 0.000000 -0.382683
vn -0.923880 0.000000 -0.382683
vn -0.923880 0.000000 0.382683
vn -0.923880 0.000000 0.382683
vn -0.382683 0.000000 0.923880
vn -0.382683 0.000000 0.923880
vn 0.382683 0.000000 0.923880
vn 0.382683 0.000000 0.923880
vn 0.923880 0.000000 0.382683
vn 0.923880 0.000000 0.382683
vn 0.923880 0.000000 -0.382684
vn 0.923880 0.000000 -0.382684
vn 0.290578 -0.650720 -0.701518
vn 0.290578 -0.650720 -0.701518
vn -0.290578 -0.650721 -0.701517
vn -0.290578 -0.650721 -0.701518
vn -0.701518 -0.650721 -0.290578
vn -0.701518 -0.650720 -0.290578
vn -0.701518 -0.650721 0.290578
vn -0.701518 -0.650721 0.290578
vn -0.290578 -0.650721 0.701518
vn -0.290578 -0.650721 0.701518
vn 0.290578 -0.650720 0.701518
vn 0.290578 -0.650720 0.701518
vn 0.701518 -0.650721 0.290578
vn 0.701518 -0.650721 0.290578
vn 0.701518 -0.650721 -0.290578
vn 0.701518 -0.650721 -0.290578
vn 0.315374 -0.566428 -0.761380
vn 0.315374 -0.566428 -0.761380
vn -0.315374 -0.566428 -0.761380
vn -0.315374 -0.566428 -0.761380
vn -0.761380 -0.566428 -0.315374
vn -0.761380 -0.566428 -0.315374
vn -0.761380 -0.566428 0.315374
vn -0.761380 -0.566428 0.315374
vn -0.315374 -0.566428 0.761380
vn -0.315374 -0.566428 0.761380
vn 0.315374 -0.566428 0.761380
vn 0.315374 -0.566428 0.761380
vn 0.761380 -0.566428 0.315374
vn 0.761380 -0.566428 0.315374
vn 0.761380 -0.566428 -0.315374
vn 0.761380 -0.566428 -0.315374
vn 0.374068 -0.211003 -0.903079
vn 0.374068 -0.211003 -0.903079
vn -0.374068 -0.211003 -0.903079
vn -0.374068 -0.211003 -0.903079
vn -0.903079 -0.211003 -0.374068
vn -0.903079 -0.211003 -0.374068
vn -0.903079 -0.211003 0.374068
vn -0.903079 -0.211003 0.374068
vn -0.374068 -0.211003 0.903078
vn -0.374068 -0.211003 0.903078
vn 0.374068 -0.211003 0.903078
vn 0.374068 -0.211003 0.903079
vn 0.903079 -0.211003 0.374068
vn 0.903079 -0.211003 0.374067
vn 0.903079 -0.211003 -0.374068
vn 0.903079 -0.211003 -0.374068
vn 0.374068 0.211003 -0.903079
vn 0.374068 0.211003 -0.903079
vn -0.374068 0.211003 -0.903079
vn -0.374068 0.211003 -0.903079
vn -0.903079 0.211003 -0.374067
vn -0.903079 0.211003 -0.374067
vn -0.903079 0.211003 0.374067
vn -0.903079 0.211003 0.374067
vn -0.374068 0.211003 0.903078
vn -0.374068 0.211003 0.903078
vn 0.374068 0.211003 0.903079
vn 0.374068 0.211003 0.903079
vn 0.903079 0.211003 0.374067
vn 0.903079 0.211003 0.374067
vn 0.903079 0.211003 -0.374067
vn 0.903079 0.211003 -0.374067
vn 0.299533 0.622378 -0.723136
vn 0.299533 0.622378 -0.723136
vn -0.299533 0.622378 -0.723136
vn -0.299533 0.622378 -0.723136
vn -0.723136 0.622378 -0.299533
vn -0.723136 0.622378 -0.299533
vn -0.723136 0.622378 0.299533
vn -0.723136 0.622378 0.299533
vn -0.299534 0.622378 0.723136
vn -0.299534 0.622378 0.723135
vn 0.299533 0.622378 0.723136
vn 0.299533 0.622378 0.723136
vn 0.723136 0.622378 0.299532
vn 0.723136 0.622378 0.299532
vn 0.723136 0.622378 -0.299533
vn 0.723136 0.622378 -0.299533
vn 0.161567 0.906506 -0.390055
vn 0.161567 0.906506 -0.390055
vn -0.161567 0.906506 -0.390054
vn -0.161567 0.906506 -0.390054
vn -0.390055 0.906506 -0.161567
vn -0.390055 0.906506 -0.161567
vn -0.390055 0.906506 0.161567
vn -0.390055 0.906506 0.161567
vn -0.161567 0.906506 0.390054
vn -0.161567 0.906506 0.390054
vn 0.161567 0.906506 0.390054
vn 0.161567 0.906506 0.390054
vn 0.390055 0.906506 0.161566
vn 0.390055 0.906506 0.161566
vn 0.390055 0.906506 -0.161566
vn 0.390055 0.906506 -0.161566
vn 0.000000 -1.000000 0.000000
vn 0.000000 -1.000000 0.000000
vn 0.000000 -1.000000 0.000000
vn 0.000000 -1.000000 0.000000
vn 0.000000 -1.000000 0.000000
vn 0.000000 -1.000000 0.000000
vn 0.000000 -1.000000 0.000000
vn 0.000000 -1.000000 0.000000
vn 0.000000 -1.000000 0.000000
vn 0.000000 1.000000 0.000000
vn 0.000000 1.000000 0.000000
vn 0.000000 1.000000 0.000000
vn 0.000000 1.000000 0.000000
vn 0.000000 1.000000 0.000000
vn 0.000000 1.000000 0.000000
vn 0.000000 1.000000 0.000000
vn 0.000000 1.000000 0.000000
vn 0.000000 1.000000 0.000000
s 1
g pCylinder1
usemtl initialShadingGroup
f 1/9/1 2/10/2 10/19/3 9/18/4
s 2
f 2/10/5 3/11/6 11/20/7 10/19/8
s 3
f 3/11/9 4/12/10 12/21/11 11/20/12
s 4
f 4/12/13 5/13/14 13/22/15 12/21/16
s 5
f 5/13/17 6/14/18 14/23/19 13/22/20
s 6
f 6/14/21 7/15/22 15/24/23 14/23/24
s 7
f 7/15/25 8/16/26 16/25/27 15/24/28
s 8
f 8/16/29 1/17/30 9/26/31 16/25/32
s 1
f 9/18/4 10/19/3 18/28/33 17/27/34
s 2
f 10/19/8 11/20/7 19/29/35 18/28/36
s 3
f 11/20/12 12/21/11 20/30/37 19/29/38
s 4
f 12/21/16 13/22/15 21/31/39 20/30/40
s 5
f 13/22/20 14/23/19 22/32/41 21/31/42
s 6
f 14/23/24 15/24/23 23/33/43 22/32/44
s 7
f 15/24/28 16/25/27 24/34/45 23/33/46
s 8
f 16/25/32 9/26/31 17/35/47 24/34/48
s 1
f 17/27/34 18/28/33 26/37/49 25/36/50
s 2
f 18/28/36 19/29/35 27/38/51 26/37/52
s 3
f 19/29/38 20/30/37 28/39/53 27/38/54
s 4
f 20/30/40 21/31/39 29/40/55 28/39/56
s 5
f 21/31/42 22/32/41 30/41/57 29/40/58
s 6
f 22/32/44 23/33/43 31/42/59 30/41/60
s 7
f 23/33/46 24/34/45 32/43/61 31/42/62
s 8
f 24/34/48 17/35/47 25/44/63 32/43/64
s 1
f 25/36/50 26/37/49 34/46/65 33/45/66
s 2
f 26/37/52 27/38/51 35/47/67 34/46/68
s 3
f 27/38/54 28/39/53 36/48/69 35/47/70
s 4
f 28/39/56 29/40/55 37/49/71 36/48/72
s 5
f 29/40/58 30/41/57 38/50/73 37/49/74
s 6
f 30/41/60 31/42/59 39/51/75 38/50/76
s 7
f 31/42/62 32/43/61 40/52/77 39/51/78
s 8
f 32/43/64 25/44/63 33/53/79 40/52/80
s 1
f 33/45/66 34/46/65 42/55/81 41/54/82
s 2
f 34/46/68 35/47/67 43/56/83 42/55/84
s 3
f 35/47/70 36/48/69 44/57/85 43/56/86
s 4
f 36/48/72 37/49/71 45/58/87 44/57/88
s 5
f 37/49/74 38/50/73 46/59/89 45/58/90
s 6
f 38/50/76 39/51/75 47/60/91 46/59/92
s 7
f 39/51/78 40/52/77 48/61/93 47/60/94
s 8
f 40/52/80 33/53/79 41/62/95 48/61/96
s 1
f 41/54/82 42/55/81 50/64/97 49/63/98
s 2
f 42/55/84 43/56/83 51/65/99 50/64/100
s 3
f 43/56/86 44/57/85 52/66/101 51/65/102
s 4
f 44/57/88 45/58/87 53/67/103 52/66/104
s 5
f 45/58/90 46/59/89 54/68/105 53/67/106
s 6
f 46/59/92 47/60/91 55/69/107 54/68/108
s 7
f 47/60/94 48/61/93 56/70/109 55/69/110
s 8
f 48/61/96 41/62/95 49/71/111 56/70/112
s 1
f 49/63/98 50/64/97 58/73/113 57/72/114
s 2
f 50/64/100 51/65/99 59/74/115 58/73/116
s 3
f 51/65/102 52/66/101 60/75/117 59/74/118
s 4
f 52/66/104 53/67/103 61/76/119 60/75/120
s 5
f 53/67/106 54/68/105 62/77/121 61/76/122
s 6
f 54/68/108 55/69/107 63/78/123 62/77/124
s 7
f 55/69/110 56/70/109 64/79/125 63/78/126
s 8
f 56/70/112 49/71/111 57/80/127 64/79/128
s 1
f 57/72/114 58/73/113 66/82/129 65/81/130
s 2
f 58/73/116 59/74/115 67/83/131 66/82/132
s 3
f 59/74/118 60/75/117 68/84/133 67/83/134
s 4
f 60/75/120 61/76/119 69/85/135 68/84/136
s 5
f 61/76/122 62/77/121 70/86/137 69/85/138
s 6
f 62/77/124 63/78/123 71/87/139 70/86/140
s 7
f 63/78/126 64/79/125 72/88/141 71/87/142
s 8
f 64/79/128 57/80/127 65/89/143 72/88/144
s 9
f 3/3/145 2/2/146 73/98/147 4/4/148
f 5/5/149 4/4/148 73/98/147 6/6/150
f 7/7/151 6/6/150 73/98/147 8/8/152
f 1/1/153 8/8/152 73/98/147 2/2/146
s 10
f 74/99/154 66/95/155 67/94/156 68/93/157
f 74/99/154 68/93/157 69/92/158 70/91/159
f 74/99/154 70/91/159 71/90/160 72/97/161
f 74/99/154 72/97/161 65/96/162 66/95/155
