# This file uses centimeters as units for non-parametric coordinates.

mtllib AshPile.mtl
g default
v 0.707107 0.000000 -0.707107
v 0.000000 0.000000 -1.000000
v -0.707107 0.000000 -0.707107
v -1.000000 0.000000 0.000000
v -0.707107 0.000000 0.707107
v 0.000000 0.000000 1.000000
v 0.707107 0.000000 0.707107
v 1.000000 0.000000 0.000000
v 0.634082 0.030248 -0.634082
v 0.000000 0.030248 -0.896727
v 0.000000 0.250000 0.000000
v -0.634082 0.030248 -0.634082
v -0.896727 0.030248 0.000000
v -0.634082 0.030248 0.634082
v 0.000000 0.030248 0.896727
v 0.634082 0.030248 0.634082
v 0.896727 0.030248 0.000000
vt 0.084798 0.485599
vt 0.001824 0.285283
vt 0.084798 0.084966
vt 0.285114 0.001992
vt 0.485431 0.084966
vt 0.568405 0.285283
vt 0.485431 0.485599
vt 0.285114 0.568573
vt 0.630372 0.714717
vt 0.630372 0.968752
vt 0.450742 0.894347
vt 0.376338 0.714717
vt 0.884406 0.714717
vt 0.810001 0.894347
vt 0.630372 0.998008
vt 0.430055 0.915034
vt 0.347081 0.714717
vt 0.450742 0.535088
vt 0.630372 0.460683
vt 0.810001 0.535088
vt 0.913663 0.714717
vt 0.830689 0.915034
vt 0.430055 0.514401
vt 0.630372 0.431427
vt 0.830689 0.514401
vn 0.000000 -1.000000 0.000000
vn 0.000000 -1.000000 0.000000
vn 0.000000 -1.000000 0.000000
vn 0.000000 -1.000000 0.000000
vn 0.000000 -1.000000 0.000000
vn 0.000000 -1.000000 0.000000
vn 0.000000 -1.000000 0.000000
vn 0.000000 -1.000000 0.000000
vn -0.168304 0.971261 -0.168304
vn -0.000000 0.981851 -0.189652
vn -0.173482 0.969437 -0.173482
vn -0.189652 0.981851 0.000000
vn -0.168304 0.971261 0.168304
vn -0.173482 0.969437 0.173482
vn -0.000000 0.981851 0.189652
vn 0.168304 0.971261 0.168304
vn 0.173482 0.969437 0.173482
vn 0.189652 0.981851 0.000000
vn 0.168304 0.971261 -0.168304
vn 0.173482 0.969437 -0.173482
vn 0.198757 0.959683 -0.198757
vn -0.000000 0.959683 -0.281085
vn -0.198757 0.959683 -0.198757
vn -0.281085 0.959683 0.000000
vn -0.198757 0.959683 0.198757
vn 0.000000 0.959683 0.281085
vn 0.198757 0.959683 0.198757
vn 0.281085 0.959683 -0.000000
s off
g pCone1
usemtl standardSurface3SG1
f 1/1/1 8/2/2 7/3/3 6/4/4 5/5/5 4/6/6 3/7/7 2/8/8
s 1
f 11/9/9 10/10/10 12/11/11 13/12/12
f 11/9/13 13/12/12 14/18/14 15/19/15
f 11/9/16 15/19/15 16/20/17 17/13/18
f 11/9/19 17/13/18 9/14/20 10/10/10
f 1/22/21 2/15/22 10/10/10 9/14/20
f 2/15/22 3/16/23 12/11/11 10/10/10
f 3/16/23 4/17/24 13/12/12 12/11/11
f 4/17/24 5/23/25 14/18/14 13/12/12
f 5/23/25 6/24/26 15/19/15 14/18/14
f 6/24/26 7/25/27 16/20/17 15/19/15
f 7/25/27 8/21/28 17/13/18 16/20/17
f 8/21/28 1/22/21 9/14/20 17/13/18
