# This file uses centimeters as units for non-parametric coordinates.

mtllib deadBird.mtl
g default
v 0.094625 0.095866 0.127356
v 0.112327 0.150349 0.127356
v -0.086923 0.001638 0.076280
v -0.023132 0.134128 0.185862
v -0.005429 0.188610 0.185862
v 0.020838 0.333292 0.076280
v -0.043690 0.140807 0.185862
v -0.025987 0.195290 0.185862
v -0.165093 0.081162 0.076280
v -0.089145 0.314903 0.076280
v -0.165093 0.081162 -0.033302
v -0.089145 0.314903 -0.033302
v -0.146106 0.139597 -0.142884
v -0.108132 0.256468 -0.142884
v -0.054441 0.101607 -0.142884
v -0.011644 0.233323 -0.142884
v 0.100839 0.051153 -0.104762
v 0.143636 0.182869 -0.104762
v 0.084264 0.000141 -0.033302
v 0.160211 0.233882 -0.033302
v 0.084264 0.000141 0.076280
v 0.160211 0.233882 0.076280
v 0.020838 0.333292 -0.033302
v -0.086923 0.001638 -0.033302
v -0.203199 0.268263 -0.033302
v -0.229950 0.185933 -0.033302
v -0.005429 0.188610 0.283815
v -0.023132 0.134128 0.283815
v -0.043690 0.140807 0.283815
v -0.025987 0.195290 0.283815
v -0.023132 0.134128 0.382088
v -0.005429 0.188610 0.382088
v -0.025987 0.195290 0.382088
v -0.043690 0.140807 0.382088
v -0.014056 0.225900 -0.214200
v -0.052029 0.109030 -0.214200
v -0.033043 0.167465 -0.214200
v -0.127119 0.198032 -0.142884
vt 0.278464 0.255934
vt 0.294327 0.129339
vt 0.472701 0.156695
vt 0.466600 0.255934
vt 0.298498 0.028671
vt 0.485641 0.001992
vt 0.585960 0.153601
vt 0.001980 0.563640
vt 0.002060 0.957922
vt 0.452292 0.442379
vt 0.769132 0.621446
vt 0.428947 0.441536
vt 0.909648 0.621447
vt 0.313055 0.391577
vt 0.431832 0.532156
vt 0.450792 0.531870
vt 0.452651 0.613648
vt 0.434616 0.614153
vt 0.016205 0.473661
vt 0.037582 0.358054
vt 0.178878 0.398374
vt 0.166163 0.481833
vt 0.272311 0.397764
vt 0.917705 0.610072
vt 0.001980 0.556032
vt 0.149117 0.610368
vt 0.208790 0.245967
vt 0.911270 0.604361
vt 0.186855 0.243389
vt 0.921178 0.602009
vt 0.062854 0.261393
vt 0.909561 0.762905
vt 0.187731 0.129539
vt 0.214370 0.129955
vt 0.187180 0.002808
vt 0.215088 0.002862
vt 0.657533 0.003006
vt 0.817118 0.003006
vt 0.878811 0.085062
vt 0.595840 0.085062
vt 0.878733 0.211017
vt 0.595918 0.211016
vt 0.770222 0.273902
vt 0.704429 0.273907
vt 0.770051 0.502127
vt 0.704599 0.502126
vt 0.770029 0.614113
vt 0.704622 0.614113
vt 0.455656 0.673217
vt 0.514563 0.712855
vt 0.446618 0.810134
vt 0.390052 0.771333
vt 0.380030 0.905703
vt 0.324196 0.867067
vt 0.991824 0.612453
vt 0.991777 0.772032
vt 0.909582 0.692156
vt 0.499606 0.735089
vt 0.440693 0.695446
vt 0.603628 0.680874
vt 0.763214 0.680874
vt 0.761655 0.870297
vt 0.605186 0.870297
vt 0.281215 0.382964
vt 0.197807 0.737720
vt 0.470612 0.650995
vt 0.529515 0.690629
vt 0.365452 0.926771
vt 0.309618 0.888135
vt 0.022904 0.007059
vt 0.122655 0.007059
vt 0.769186 0.692237
vt 0.001980 0.173466
vt 0.460535 0.456583
vt 0.713726 0.627919
vt 0.042313 0.311020
vt 0.769277 0.762920
vt 0.861590 0.830076
vt 0.600351 0.009045
vt 0.861591 0.554328
vt 0.072779 0.173466
vt 0.143579 0.173466
vt 0.257756 0.505414
vt 0.243344 0.625393
vt 0.912616 0.615818
vt 0.347764 0.998008
vt 0.573967 0.283987
vn 0.143504 -0.670865 0.727562
vn 0.097692 -0.661808 0.743280
vn 0.135073 -0.669316 0.730597
vn 0.832475 -0.270488 0.483551
vn 0.784906 -0.162470 0.597935
vn 0.745780 -0.242319 0.620559
vn 0.745780 -0.242319 0.620559
vn 0.510422 0.458392 0.727562
vn 0.502691 0.462094 0.730597
vn 0.468036 0.477992 0.743280
vn -0.185730 -0.571617 0.799224
vn 0.000000 0.000000 1.000000
vn 0.000000 0.000000 1.000000
vn 0.000000 0.000000 1.000000
vn 0.000000 0.000000 1.000000
vn 0.185730 0.571617 0.799224
vn -0.712044 0.231357 0.662924
vn -0.662571 0.284797 0.692741
vn -0.450943 0.712596 0.537455
vn -0.712044 0.231357 0.662924
vn -0.721668 0.234484 0.651316
vn -0.721668 0.234484 0.651316
vn -0.721668 0.234484 0.651316
vn -0.721668 0.234484 0.651316
vn -0.721671 0.234485 -0.651313
vn -0.721671 0.234485 -0.651313
vn -0.721671 0.234485 -0.651313
vn -0.721671 0.234485 -0.651313
vn -0.721671 0.234485 -0.651313
vn 0.216247 -0.070263 -0.973807
vn 0.291168 0.364327 -0.884583
vn 0.654305 0.135501 -0.743992
vn 0.216247 -0.070263 -0.973807
vn 0.951057 -0.309017 -0.000000
vn 0.913865 0.321870 -0.247488
vn 0.951057 -0.309017 -0.000000
vn 0.949012 0.225705 0.220078
vn 0.950510 -0.308839 0.033905
vn 0.314451 0.894596 -0.317519
vn 0.255072 0.938427 0.233010
vn -0.112494 0.958263 -0.262825
vn 0.203606 0.848815 -0.487912
vn -0.045554 -0.761083 -0.647053
vn -0.030625 -0.926680 -0.374602
vn -0.271434 -0.908573 -0.317519
vn -0.165081 -0.751304 -0.638976
vn -0.008204 -0.937706 0.347333
vn -0.345236 -0.909131 0.233010
vn -0.004115 -0.470402 0.882443
vn -0.654263 -0.709129 -0.262825
vn -0.673670 -0.662204 0.328107
vn -0.462974 -0.455094 0.760621
vn -0.378505 0.925599 0.000000
vn -0.378505 0.925599 0.000000
vn -0.378505 0.925599 0.000000
vn 0.000000 0.000000 -1.000000
vn 0.000000 0.000000 -1.000000
vn 0.000000 0.000000 -1.000000
vn 0.000000 0.000000 -1.000000
vn -0.850271 -0.526346 0.000000
vn -0.850271 -0.526346 0.000000
vn -0.850271 -0.526346 0.000000
vn 0.000000 0.000000 1.000000
vn 0.000000 0.000000 1.000000
vn 0.000000 0.000000 1.000000
vn 0.000000 0.000000 1.000000
vn -0.347973 0.850936 -0.393474
vn -0.347973 0.850937 -0.393474
vn -0.347973 0.850936 -0.393474
vn -0.781684 -0.483889 -0.393474
vn -0.781684 -0.483889 -0.393474
vn -0.781684 -0.483889 -0.393474
vn 0.309017 0.951057 0.000000
vn 0.309017 0.951057 0.000000
vn 0.309017 0.951057 0.000000
vn -0.951057 0.309017 0.000000
vn -0.951057 0.309017 0.000000
vn -0.951057 0.309017 0.000000
vn -0.951057 0.309017 0.000000
vn -0.309017 -0.951057 0.000000
vn -0.309017 -0.951057 0.000000
vn -0.309017 -0.951057 0.000000
vn 0.000000 0.000000 -1.000000
vn 0.000000 0.000000 -1.000000
vn 0.000000 0.000000 -1.000000
vn 0.000000 0.000000 -1.000000
vn -0.309017 -0.951057 0.000000
vn -0.309017 -0.951057 0.000000
vn 0.000000 0.000000 1.000000
vn 0.000000 0.000000 1.000000
vn 0.000000 0.000000 1.000000
vn 0.000000 0.000000 1.000000
vn 0.309017 0.951057 0.000000
vn 0.309017 0.951057 0.000000
vn 0.951057 -0.309017 0.000000
vn 0.951057 -0.309017 0.000000
vn 0.951057 -0.309017 0.000000
vn 0.951057 -0.309017 0.000000
vn 0.309017 0.951057 0.000000
vn 0.309017 0.951057 0.000000
vn -0.951057 0.309017 0.000000
vn -0.951057 0.309017 0.000000
vn -0.309017 -0.951057 0.000000
vn -0.309017 -0.951057 0.000000
vn 0.231879 0.966680 -0.108455
vn 0.231879 0.966680 -0.108455
vn 0.231879 0.966680 -0.108455
vn 0.951057 -0.309017 -0.000000
vn 0.951057 -0.309017 -0.000000
vn 0.951057 -0.309017 -0.000000
vn 0.951057 -0.309017 -0.000000
vn 0.951057 -0.309017 -0.000000
vn -0.380606 -0.918355 -0.108455
vn -0.380606 -0.918355 -0.108455
vn -0.380606 -0.918355 -0.108455
vn -0.556191 0.180717 -0.811168
vn -0.556191 0.180717 -0.811168
vn -0.556191 0.180717 -0.811168
vn -0.556191 0.180717 -0.811168
vn -0.556191 0.180717 -0.811168
vn -0.556191 0.180717 -0.811168
vn -0.334200 -0.806382 -0.487912
s 1
g pCube1
usemtl standardSurface2SG
f 1/31/1 4/29/2 3/21/3
s 2
f 1/44/4 2/43/5 27/45/6 28/46/7
s 3
f 2/64/8 6/4/9 5/12/10
s 1
f 3/21/3 4/29/2 7/27/11
s off
f 4/58/12 5/59/13 8/49/14 7/50/15
s 3
f 5/12/10 6/4/9 8/10/16
s 2
f 7/50/17 8/49/18 10/74/19 9/75/20
s off
f 9//21 10//22 25//23 26//24
f 26/70/25 25/71/26 14/82/27 38/81/28 13/73/29
s 2
f 15/60/30 16/61/31 18/62/32 17/63/33
f 17/37/34 18/38/32 20/39/35 19/40/36
f 19/40/36 20/39/35 22/41/37 21/42/38
f 21/42/38 22/41/37 2/43/5 1/44/4
f 20/2/35 18/5/32 16/6/31 23/3/39
f 22/1/37 20/2/35 23/3/39 6/4/40
f 2/64/5 22/1/37 6/4/40
f 12/7/41 16/6/31 14/79/42
f 6/4/40 23/3/39 12/7/41 10/87/19
f 6/4/40 10/87/19 8/10/18
s 6
f 17/25/43 19/19/44 24/22/45 15/26/46
f 19/19/44 21/20/47 3/21/48 24/22/45
f 21/20/47 1/31/49 3/21/48
f 15/26/46 24/22/45 11/83/50
f 24/22/45 3/21/48 9/23/51 11/83/50
f 3/21/48 7/27/52 9/23/51
s off
f 10/8/53 12/65/54 25/9/55
f 12//56 11//57 26//58 25//59
f 11/24/60 9/85/61 26/28/62
f 11//63 12//64 25//65 26//66
f 12/65/67 14/86/68 25/9/69
f 13/30/70 11/24/71 26/28/72
s 7
f 2/14/73 5/12/74 27/15/75
s 8
f 8/49/76 7/50/77 29/51/78 30/52/79
s 9
f 4/29/80 1/76/81 28/33/82
s off
f 5/66/83 4/67/84 7/50/85 8/49/86
s 9
f 4/29/80 28/33/82 29/34/87 7/27/88
s off
f 31/68/89 32/69/90 33/54/91 34/53/92
s 7
f 27/15/75 5/12/74 8/10/93 30/16/94
s off
f 28/46/95 27/45/96 32/47/97 31/48/98
s 7
f 27/15/75 30/16/94 33/17/99 32/18/100
s 8
f 30/52/79 29/51/78 34/53/101 33/54/102
s 9
f 29/34/87 28/33/82 31/35/103 34/36/104
s off
f 14/11/105 16/80/106 35/13/107
f 16/55/108 15/56/109 36/32/110 37/57/111 35/13/112
f 15/78/113 13/77/114 36/32/115
s 10
f 36/32/116 13/77/117 38/72/118 37/57/119
f 37/57/119 38/72/118 14/11/120 35/13/121
s 2
f 23/3/39 16/6/31 12/7/41
s 6
f 15/26/46 11/83/50 13/84/122
