# This file uses centimeters as units for non-parametric coordinates.

mtllib Rock2.mtl
g default
v -0.997316 -0.034463 0.797189
v -0.967788 -0.053738 0.798501
v -0.959274 -0.035537 0.827537
v -0.937278 0.002818 0.831417
v -0.977221 0.002530 0.819893
v -0.993930 0.002447 0.789757
v 2.144227 -0.008920 0.698394
v 2.137156 0.027935 0.689576
v 2.119997 0.028690 0.718784
v 2.078123 0.029392 0.731899
v 2.105531 -0.010231 0.729915
v 2.116485 -0.029514 0.701885
v -0.476955 0.577136 0.536425
v -0.500765 0.557201 0.540541
v -0.489253 0.552573 0.571241
v -0.460951 0.547242 0.583130
v -0.447859 0.572640 0.565530
v -0.444620 0.583574 0.535819
v 1.649563 0.437467 0.464817
v 1.619032 0.445528 0.464545
v 1.621467 0.434730 0.496256
v 1.634577 0.411556 0.514443
v 1.662433 0.414683 0.501123
v 1.673727 0.418858 0.469925
v -0.488975 0.553715 -0.965785
v -0.500410 0.557707 -0.935413
v -0.477097 0.577202 -0.929626
v -0.445200 0.583604 -0.928342
v -0.448342 0.573298 -0.958518
v -0.461033 0.549002 -0.977641
v 1.662002 0.428050 -0.900645
v 1.634387 0.425456 -0.913844
v 1.620815 0.447815 -0.894367
v 1.617777 0.457843 -0.863445
v 1.649440 0.449659 -0.863714
v 1.673262 0.431643 -0.869741
v -0.997180 -0.034139 -1.238727
v -0.993444 0.003140 -1.228922
v -0.976941 0.003723 -1.259183
v -0.937504 0.004539 -1.270761
v -0.959490 -0.034614 -1.269417
v -0.968116 -0.053741 -1.240930
v 2.143975 -0.008534 -1.139027
v 2.116852 -0.029511 -1.143615
v 2.106598 -0.009492 -1.170996
v 2.080598 0.030026 -1.170388
v 2.120189 0.029447 -1.157150
v 2.136429 0.028773 -1.127513
v -0.986515 -0.027125 0.821151
v 2.132531 -0.001208 0.721667
v -0.473292 0.571179 0.561247
v 1.646032 0.431804 0.490806
v -0.473428 0.571687 -0.954526
v 1.645814 0.444589 -0.889262
v -0.986385 -0.026300 -1.262478
v 2.132637 -0.000503 -1.162159
v -1.110749 -0.034301 -0.220769
v -1.107188 0.002793 -0.219583
v -0.500588 0.679299 -0.197436
v -0.477026 0.699014 -0.196601
v -0.444910 0.705434 -0.196262
v 1.618405 0.475564 -0.199450
v 1.649501 0.467442 -0.199448
v 1.673494 0.449130 -0.199908
v 2.272249 0.028354 -0.218969
v 2.279557 -0.008727 -0.220317
v 2.252125 -0.029512 -0.220865
v -1.081453 -0.053740 -0.221215
v -1.081457 -0.053740 -0.286185
v 2.252129 -0.029512 -0.283575
v 2.279555 -0.008723 -0.282933
v 2.272240 0.028363 -0.281348
v 1.673489 0.449136 -0.253143
v 1.649500 0.467441 -0.252554
v 1.618390 0.475565 -0.252550
v -0.444917 0.705434 -0.250948
v -0.477027 0.699015 -0.251309
v -0.500583 0.679305 -0.252259
v -1.107182 0.002801 -0.284311
v -1.110748 -0.034297 -0.285698
v -1.110751 -0.034305 -0.163599
v -1.107194 0.002785 -0.162622
v -0.500592 0.679293 -0.149861
v -0.477024 0.699013 -0.149145
v -0.444903 0.705434 -0.148829
v 1.618420 0.475563 -0.153662
v 1.649503 0.467442 -0.153654
v 1.673500 0.449123 -0.153979
v 2.272257 0.028343 -0.164443
v 2.279561 -0.008732 -0.165545
v 2.252120 -0.029512 -0.165995
v -1.081449 -0.053740 -0.164003
v 1.318844 -0.018410 0.815223
v 1.324801 -0.039983 0.786935
v 1.324894 -0.039982 -0.165484
v 1.324896 -0.039982 -0.220954
v 1.324898 -0.039982 -0.284245
v 1.324990 -0.039981 -1.226675
v 1.319582 -0.017518 -1.254340
v 1.305899 0.027234 -1.254233
v 1.096526 0.515838 -0.930220
v 1.089696 0.541783 -0.910833
v 1.088244 0.553246 -0.880103
v 1.088772 0.603697 -0.252138
v 1.088785 0.603696 -0.198632
v 1.088798 0.603695 -0.152422
v 1.089326 0.542847 0.482840
v 1.090304 0.530550 0.514038
v 1.096688 0.503597 0.532074
v 1.304118 0.026198 0.817693
v 1.245940 -0.018700 0.816210
v 1.251701 -0.040261 0.787912
v 1.251790 -0.040260 -0.165464
v 1.251792 -0.040260 -0.220958
v 1.251794 -0.040260 -0.284271
v 1.251883 -0.040260 -1.227659
v 1.246665 -0.017806 -1.255335
v 1.233467 0.026941 -1.255248
v 1.033423 0.517255 -0.930865
v 1.026857 0.543223 -0.911482
v 1.025468 0.554690 -0.880759
v 1.025994 0.606335 -0.252122
v 1.026006 0.606334 -0.198599
v 1.026019 0.606333 -0.152373
v 1.026544 0.544431 0.483560
v 1.027464 0.532133 0.514738
v 1.033584 0.505154 0.532769
v 1.231714 0.025893 0.818700
v 1.391340 0.026498 0.816701
v 1.174737 0.502061 0.531389
v 1.168091 0.528989 0.513347
v 1.167056 0.541284 0.482129
v 1.166525 0.601093 -0.152470
v 1.166512 0.601094 -0.198663
v 1.166499 0.601095 -0.252154
v 1.165968 0.551823 -0.879456
v 1.167481 0.540362 -0.910193
v 1.174574 0.514439 -0.929583
v 1.393149 0.027522 -1.253232
v 1.407310 -0.017233 -1.253358
v 1.412907 -0.039707 -1.225704
v 1.412811 -0.039708 -0.284219
v 1.412809 -0.039708 -0.220951
v 1.412806 -0.039708 -0.165504
v 1.412711 -0.039709 0.785971
v 1.406560 -0.018124 0.814250
vt 0.380117 0.993663
vt 0.379402 0.021949
vt 0.619561 0.993319
vt 0.631744 0.028597
vt 0.378988 0.233725
vt 0.619414 0.230880
vt 0.632028 0.236273
vt 0.130115 0.022246
vt 0.379188 0.493797
vt 0.620980 0.493849
vt 0.869586 0.236568
vt 0.869612 0.029018
vt 0.619589 0.756558
vt 0.379290 0.727380
vt 0.618944 0.721471
vt 0.618589 0.028047
vt 0.379256 0.255911
vt 0.621127 0.256156
vt 0.378869 0.515482
vt 0.619567 0.518174
vt 0.380092 0.756173
vt 0.368564 0.021977
vt 0.368214 0.237998
vt 0.130236 0.238213
vt 0.375000 0.996736
vt 0.371736 0.000000
vt 0.377337 0.000000
vt 0.377337 1.000000
vt 0.373851 0.018803
vt 0.628590 0.000000
vt 0.625000 0.996410
vt 0.625506 0.024059
vt 0.622629 1.000000
vt 0.622629 0.000000
vt 0.370752 0.250000
vt 0.375000 0.254248
vt 0.373898 0.233786
vt 0.379604 0.244810
vt 0.625000 0.254855
vt 0.629855 0.250000
vt 0.619509 0.242750
vt 0.625232 0.230532
vt 0.125000 0.240656
vt 0.375000 0.509344
vt 0.375000 0.495755
vt 0.129244 0.250000
vt 0.379505 0.504686
vt 0.625000 0.511123
vt 0.875000 0.238877
vt 0.619558 0.506535
vt 0.870242 0.250000
vt 0.625000 0.495242
vt 0.128258 0.000000
vt 0.375000 0.753258
vt 0.375000 0.739732
vt 0.125000 0.010268
vt 0.379201 0.742811
vt 0.625000 0.753566
vt 0.871434 0.000000
vt 0.619794 0.740675
vt 0.875000 0.012924
vt 0.625000 0.737076
vt 0.375000 1.000000
vt 0.375000 0.000000
vt 0.625000 0.000000
vt 0.625000 1.000000
vt 0.375000 0.250000
vt 0.625000 0.250000
vt 0.125000 0.250000
vt 0.375000 0.500000
vt 0.625000 0.500000
vt 0.875000 0.250000
vt 0.125000 0.000000
vt 0.375000 0.750000
vt 0.625000 0.750000
vt 0.875000 0.000000
vt 0.375000 0.874997
vt 0.249997 0.000000
vt 0.249340 0.022112
vt 0.249225 0.238106
vt 0.249998 0.250000
vt 0.375000 0.375002
vt 0.379222 0.374854
vt 0.621054 0.375003
vt 0.625000 0.375048
vt 0.750048 0.250000
vt 0.750807 0.236420
vt 0.750678 0.028807
vt 0.750012 0.000000
vt 0.625000 0.874988
vt 0.619575 0.874938
vt 0.380104 0.874918
vt 0.380104 0.872151
vt 0.619575 0.872180
vt 0.752842 0.000000
vt 0.625000 0.872158
vt 0.753450 0.028812
vt 0.753576 0.236424
vt 0.625000 0.377849
vt 0.752849 0.250000
vt 0.621052 0.377772
vt 0.379221 0.377626
vt 0.247184 0.250000
vt 0.375000 0.377816
vt 0.246452 0.238108
vt 0.246561 0.022115
vt 0.375000 0.872160
vt 0.247160 0.000000
vt 0.375000 0.877938
vt 0.252938 0.000000
vt 0.252220 0.022108
vt 0.252100 0.238103
vt 0.252915 0.250000
vt 0.375000 0.372085
vt 0.379223 0.371981
vt 0.621055 0.372132
vt 0.625000 0.372145
vt 0.747145 0.250000
vt 0.747938 0.236417
vt 0.747805 0.028802
vt 0.747079 0.000000
vt 0.625000 0.877921
vt 0.619574 0.877798
vt 0.380105 0.877786
vt 0.559667 0.000000
vt 0.559667 1.000000
vt 0.558099 0.993407
vt 0.558106 0.877795
vt 0.558107 0.874933
vt 0.558107 0.872172
vt 0.558114 0.756459
vt 0.558038 0.741223
vt 0.557428 0.722987
vt 0.557784 0.517483
vt 0.557940 0.506061
vt 0.558916 0.493836
vt 0.558978 0.377735
vt 0.558979 0.374965
vt 0.558981 0.372093
vt 0.559043 0.256093
vt 0.557929 0.243279
vt 0.557701 0.231610
vt 0.557194 0.026482
vt 0.557187 0.000000
vt 0.557187 1.000000
vt 0.555679 0.993411
vt 0.555685 0.877795
vt 0.555686 0.874933
vt 0.555686 0.872172
vt 0.555693 0.756455
vt 0.555606 0.741245
vt 0.555005 0.723047
vt 0.555350 0.517456
vt 0.555513 0.506042
vt 0.556471 0.493835
vt 0.556533 0.377733
vt 0.556534 0.374963
vt 0.556536 0.372092
vt 0.556597 0.256091
vt 0.555504 0.243300
vt 0.555270 0.231639
vt 0.554776 0.026420
vt 0.559579 0.026543
vt 0.560099 0.231582
vt 0.560322 0.243258
vt 0.561455 0.256096
vt 0.561393 0.372095
vt 0.561391 0.374966
vt 0.561390 0.377736
vt 0.561327 0.493836
vt 0.560334 0.506079
vt 0.560184 0.517510
vt 0.559819 0.722929
vt 0.560437 0.741202
vt 0.560502 0.756463
vt 0.560495 0.872172
vt 0.560495 0.874933
vt 0.560495 0.877795
vt 0.560487 0.993404
vt 0.562113 0.000000
vt 0.562113 1.000000
vn -0.552887 -0.833257 -0.000016
vn -0.552885 -0.833257 -0.000016
vn -0.556779 -0.828363 -0.061743
vn -0.556808 -0.828296 -0.062382
vn -0.995422 0.095577 -0.000051
vn -0.761303 0.648396 0.000015
vn -0.749896 0.654612 -0.095595
vn -0.987321 0.113502 -0.110971
vn 0.013681 0.480500 0.876888
vn 0.012289 -0.051168 0.998615
vn 0.112346 0.004179 0.993660
vn 0.107021 0.529448 0.841565
vn 0.010271 -0.794078 0.607729
vn 0.010049 -0.794069 0.607745
vn 0.075883 -0.794607 0.602363
vn 0.071667 -0.794676 0.602788
vn -0.754063 0.646971 0.113216
vn -0.633776 0.692111 0.345415
vn -0.620993 0.706181 0.340111
vn -0.728218 0.676837 0.107655
vn -0.234395 0.528435 0.815975
vn 0.004523 0.385303 0.922779
vn 0.015001 0.462769 0.886352
vn -0.229669 0.564333 0.792957
vn 0.604931 0.796278 0.000043
vn 0.981122 0.193392 -0.000072
vn 0.965326 0.217961 -0.143663
vn 0.631276 0.772727 -0.066199
vn 0.603913 -0.797050 -0.000025
vn 0.603915 -0.797049 -0.000025
vn 0.610655 -0.786708 -0.090508
vn 0.610596 -0.786899 -0.089236
vn 0.137057 0.492227 0.859609
vn 0.248768 0.625158 0.739791
vn 0.240561 0.676322 0.696218
vn 0.120483 0.571902 0.811426
vn 0.547257 0.780645 0.301832
vn 0.634876 0.767473 0.088981
vn 0.595511 0.799635 0.077144
vn 0.531668 0.794118 0.294459
vn -0.741663 0.670773 0.000018
vn -0.424880 0.905250 0.000032
vn -0.398587 0.904812 -0.149816
vn -0.726662 0.680503 -0.094225
vn 0.061481 0.998108 -0.000002
vn 0.041676 0.991593 -0.122505
vn 0.030004 0.993600 0.108901
vn 0.024441 0.930328 0.365913
vn 0.181313 0.925302 0.333079
vn 0.206995 0.974548 0.086083
vn 0.020841 0.559403 0.828634
vn 0.014567 0.520062 0.854005
vn 0.095310 0.560530 0.822631
vn 0.125301 0.606890 0.784847
vn 0.266699 0.963780 -0.000059
vn 0.432678 0.901549 -0.000020
vn 0.426745 0.904049 -0.024168
vn 0.239859 0.969665 -0.047101
vn 0.576147 0.817346 0.000048
vn 0.598754 0.798804 -0.058355
vn -0.724392 0.680904 -0.107824
vn -0.614903 0.719306 -0.323252
vn -0.628615 0.704813 -0.328758
vn -0.751416 0.649866 -0.114231
vn -0.228003 0.609727 -0.759110
vn 0.013203 0.512997 -0.858289
vn 0.003817 0.441491 -0.897258
vn -0.233000 0.576792 -0.782958
vn 0.013848 0.558897 -0.829122
vn 0.019715 0.601763 -0.798431
vn 0.127100 0.648313 -0.750690
vn 0.094096 0.598298 -0.795730
vn 0.022236 0.937046 -0.348498
vn 0.028846 0.995210 -0.093408
vn 0.204964 0.976309 -0.069352
vn 0.178075 0.932262 -0.314922
vn 0.118298 0.608770 -0.784478
vn 0.396614 0.773276 -0.494713
vn 0.249205 0.663739 -0.705229
vn 0.133284 0.538711 -0.831881
vn 0.599143 0.797514 -0.070703
vn 0.639720 0.763937 -0.084605
vn 0.553442 0.781385 -0.288340
vn 0.010327 -0.775253 -0.631567
vn 0.010534 -0.775261 -0.631553
vn 0.072413 -0.777071 -0.625233
vn 0.076289 -0.777084 -0.624757
vn 0.012214 0.006190 -0.999906
vn 0.013079 0.522522 -0.852526
vn 0.104616 0.569262 -0.815473
vn 0.108855 0.059858 -0.992254
vn 0.029761 0.996833 -0.073738
vn 0.037271 0.999305 0.000006
vn 0.235028 0.971989 -0.000050
vn 0.208580 0.976611 -0.052215
vn 0.003430 -0.999994 -0.000000
vn 0.003430 -0.999994 -0.000001
vn 0.012120 -0.999926 -0.000828
vn 0.011287 -0.999936 -0.000000
vn -0.986273 0.106590 0.126115
vn -0.881044 0.222346 0.417522
vn -0.431267 -0.741230 0.514380
vn 0.002248 -0.821909 0.569615
vn 0.004518 -0.821904 0.569608
vn -0.431267 -0.741230 0.514380
vn 0.000290 -0.073631 0.997286
vn -0.248136 0.076939 0.965665
vn 0.092353 -0.793095 0.602055
vn 0.103224 -0.791488 0.602404
vn 0.483026 -0.668784 0.565167
vn 0.483026 -0.668784 0.565167
vn 0.964768 0.208072 0.161027
vn 0.850445 0.322617 0.415525
vn 0.133503 0.021870 0.990807
vn 0.273265 0.169249 0.946932
vn 0.034381 0.933679 0.356457
vn 0.042994 0.987786 0.149770
vn -0.434228 0.886069 0.162259
vn -0.397170 0.863911 0.309699
vn 0.041322 0.558636 0.828383
vn -0.188324 0.608002 0.771277
vn 0.444071 0.894482 0.051993
vn 0.360107 0.824338 0.436794
vn 0.238227 0.967809 0.081204
vn 0.185667 0.783777 0.592639
vn 0.035433 0.605469 -0.795080
vn -0.182101 0.651216 -0.736721
vn -0.432632 0.886693 -0.163113
vn -0.391759 0.872441 -0.292183
vn 0.038970 0.988934 -0.143146
vn 0.026494 0.941402 -0.336244
vn 0.439440 0.897602 -0.034692
vn 0.350370 0.839985 -0.414327
vn 0.184021 0.803838 -0.565668
vn 0.236121 0.969590 -0.064358
vn 0.005179 -0.803943 -0.594684
vn 0.002818 -0.803938 -0.594707
vn -0.445381 -0.717285 -0.535853
vn -0.445381 -0.717285 -0.535853
vn -0.984647 0.119189 -0.127534
vn -0.879103 0.251035 -0.405166
vn 0.001028 -0.012145 -0.999926
vn -0.251327 0.141194 -0.957548
vn 0.960930 0.224390 -0.162058
vn 0.852954 0.348939 -0.388214
vn 0.507293 -0.642922 -0.573852
vn 0.103985 -0.774179 -0.624367
vn 0.093513 -0.775673 -0.624169
vn 0.507293 -0.642922 -0.573852
vn 0.130042 0.077143 -0.988503
vn 0.283266 0.232012 -0.930554
vn -0.988598 0.102511 0.110298
vn -0.754525 0.649286 0.095498
vn -0.730183 0.676639 0.094827
vn -0.408706 0.900335 0.149520
vn 0.044892 0.990571 0.129437
vn 0.030710 0.995576 0.088801
vn 0.209963 0.975333 0.068124
vn 0.241422 0.968359 0.063210
vn 0.432127 0.900901 0.040556
vn 0.595793 0.800497 0.065075
vn 0.630933 0.772469 0.072212
vn 0.968610 0.203412 0.142894
vn 0.600903 -0.794468 0.087962
vn 0.600863 -0.794425 0.088615
vn 0.003430 -0.999994 -0.000000
vn 0.012128 -0.999926 0.000829
vn -0.549468 -0.833262 0.061314
vn -0.549492 -0.833270 0.060986
vn 0.003433 -0.999994 -0.000001
vn 0.012099 -0.999926 -0.000882
vn 0.610917 -0.785790 -0.096508
vn 0.610917 -0.785791 -0.096508
vn -0.556977 -0.827876 -0.066315
vn -0.556977 -0.827876 -0.066315
vn 0.600538 -0.794066 0.093876
vn 0.600538 -0.794066 0.093876
vn 0.003433 -0.999994 -0.000000
vn 0.012097 -0.999926 0.000875
vn -0.549217 -0.833165 0.064781
vn -0.549217 -0.833165 0.064781
vn 0.008527 -0.821174 0.570614
vn 0.008564 -0.820816 0.571129
vn 0.005855 -0.999983 -0.000340
vn 0.005847 -0.999983 -0.000321
vn 0.005718 -0.999984 0.000000
vn 0.005846 -0.999983 0.000321
vn 0.005855 -0.999983 0.000343
vn 0.009270 -0.802856 -0.596101
vn 0.009241 -0.803192 -0.595648
vn 0.007235 -0.014635 -0.999867
vn 0.015144 0.462257 -0.886617
vn 0.016546 0.513345 -0.858023
vn 0.037210 0.604723 -0.795566
vn 0.029479 0.940771 -0.337759
vn 0.044037 0.989248 -0.139459
vn 0.046350 0.991711 -0.119841
vn 0.066202 0.997806 -0.000002
vn 0.049699 0.990637 0.127152
vn 0.048059 0.988056 0.146406
vn 0.037294 0.933032 0.357855
vn 0.043072 0.557990 0.828729
vn 0.018436 0.463353 0.885982
vn 0.016567 0.407931 0.912862
vn 0.006572 -0.075818 0.997100
vn 0.005911 -0.999982 -0.000329
vn 0.005920 -0.999982 -0.000351
vn 0.005777 -0.999983 0.000000
vn 0.005910 -0.999983 0.000329
vn 0.005920 -0.999982 0.000354
vn 0.013266 -0.999912 -0.000997
vn 0.013179 -0.999913 -0.000919
vn 0.012147 -0.999926 -0.000000
vn 0.013191 -0.999913 0.000921
vn 0.013268 -0.999912 0.000989
s 1
g pCube1
usemtl aiStandardSurface2SG
f 68/92/1 57/77/2 80/107/3 69/93/4
s 2
f 57/78/5 58/79/6 79/106/7 80/108/8
f 110/143/9 93/125/10 146/180/11 129/163/12
s 4
f 93/126/13 94/127/14 145/179/15 146/181/16
s 2
f 6/22/17 5/29/18 15/37/19 14/23/20
f 5/29/21 4/2/22 16/5/23 15/37/24
f 65/88/25 66/89/26 71/95/27 72/97/28
s 8
f 66/90/29 67/91/30 70/94/31 71/96/32
s 2
f 10/16/33 9/32/34 23/42/35 22/6/36
f 9/32/37 8/4/38 24/7/39 23/42/40
f 59/80/41 60/81/42 77/103/43 78/105/44
f 60/82/42 61/83/45 76/102/46 77/104/43
f 107/140/47 108/141/48 131/165/49 132/166/50
f 108/141/51 109/142/52 130/164/53 131/165/54
f 62/84/55 63/85/56 74/99/57 75/101/58
f 63/86/56 64/87/59 73/98/60 74/100/57
f 26/24/61 25/43/62 39/56/63 38/8/64
f 25/44/65 30/19/66 40/14/67 39/55/68
f 101/134/69 102/135/70 137/171/71 138/172/72
f 102/135/73 103/136/74 136/170/75 137/171/76
f 32/20/77 31/48/78 47/62/79 46/15/80
f 31/49/78 36/11/81 48/12/82 47/61/83
s 21
f 98/131/84 99/132/85 140/174/86 141/175/87
s 2
f 99/132/88 100/133/89 139/173/90 140/174/91
f 109/142/52 110/143/9 129/163/12 130/164/53
f 104/137/92 105/138/93 134/168/94 135/169/95
f 100/133/89 101/134/69 138/172/72 139/173/90
s 24
f 96/129/96 97/130/97 142/176/98 143/177/99
s 2
f 64/87/59 65/88/25 72/97/28 73/98/60
f 78/105/44 79/106/7 58/79/6 59/80/41
f 5/29/18 6/22/17 1/26/100 49/64/101
s 4
f 1/25/102 2/1/103 3/28/104 49/63/105
s 2
f 3/27/106 4/2/22 5/29/21 49/64/107
s 4
f 11/33/108 12/3/109 7/31/110 50/66/111
s 2
f 7/30/112 8/4/38 9/32/37 50/65/113
f 9/32/34 10/16/33 11/34/114 50/65/115
f 17/38/116 18/17/117 13/36/118 51/67/119
f 13/35/118 14/23/20 15/37/19 51/67/119
f 15/37/24 16/5/23 17/38/120 51/67/121
f 23/42/40 24/7/39 19/40/122 52/68/123
f 19/39/122 20/18/124 21/41/125 52/68/123
f 21/41/125 22/6/36 23/42/35 52/68/123
f 29/47/126 30/19/66 25/44/65 53/70/127
f 25/43/62 26/24/61 27/46/128 53/69/129
f 27/45/128 28/9/130 29/47/131 53/70/129
f 35/51/132 36/11/81 31/49/78 54/72/133
f 31/48/78 32/20/77 33/50/134 54/71/133
f 33/50/134 34/10/135 35/52/132 54/71/133
s 21
f 41/57/136 42/21/137 37/54/138 55/74/139
s 2
f 37/53/140 38/8/64 39/56/63 55/73/141
f 39/55/68 40/14/67 41/57/142 55/74/143
f 47/61/83 48/12/82 43/59/144 56/76/145
s 21
f 43/58/146 44/13/147 45/60/148 56/75/149
s 2
f 45/60/150 46/15/80 47/62/79 56/75/151
f 81/110/152 82/111/153 58/79/6 57/78/5
f 59/80/41 58/79/6 82/111/153 83/112/154
f 83/112/154 84/113/155 60/81/42 59/80/41
f 84/114/155 85/115/156 61/83/45 60/82/42
f 105/138/93 106/139/157 133/167/158 134/168/94
f 86/116/159 87/117/160 63/85/56 62/84/55
f 87/118/160 88/119/161 64/87/59 63/86/56
f 88/119/161 89/120/162 65/88/25 64/87/59
f 89/120/162 90/121/163 66/89/26 65/88/25
s 8
f 90/122/164 91/123/165 67/91/30 66/90/29
s 24
f 95/128/166 96/129/96 143/177/99 144/178/167
s 1
f 92/124/168 81/109/169 57/77/2 68/92/1
s 24
f 97/130/97 98/131/170 141/175/171 142/176/98
s 8
f 71/96/32 70/94/31 44/13/172 43/58/173
s 2
f 72/97/28 71/95/27 43/59/144 48/12/82
f 73/98/60 72/97/28 48/12/82 36/11/81
f 74/100/57 73/98/60 36/11/81 35/51/132
f 75/101/58 74/99/57 35/52/132 34/10/135
f 103/136/74 104/137/92 135/169/95 136/170/75
f 77/104/43 76/102/46 28/9/130 27/45/128
f 78/105/44 77/103/43 27/46/128 26/24/61
f 38/8/64 79/106/7 78/105/44 26/24/61
f 80/108/8 79/106/7 38/8/64 37/53/140
s 1
f 69/93/4 80/107/3 37/54/174 42/21/175
s 2
f 1/26/100 6/22/17 82/111/153 81/110/152
f 83/112/154 82/111/153 6/22/17 14/23/20
f 14/23/20 13/35/118 84/113/155 83/112/154
f 13/36/118 18/17/117 85/115/156 84/114/155
f 106/139/157 107/140/47 132/166/50 133/167/158
f 20/18/124 19/39/122 87/117/160 86/116/159
f 19/40/122 24/7/39 88/119/161 87/118/160
f 8/4/38 89/120/162 88/119/161 24/7/39
f 8/4/38 7/30/112 90/121/163 89/120/162
s 8
f 7/31/176 12/3/177 91/123/165 90/122/164
s 24
f 94/127/178 95/128/166 144/178/167 145/179/179
s 1
f 2/1/180 1/25/181 81/109/169 92/124/168
s 4
f 111/145/182 112/146/183 94/127/14 93/126/13
s 24
f 112/146/184 113/147/185 95/128/166 94/127/178
f 113/147/185 114/148/186 96/129/96 95/128/166
f 114/148/186 115/149/187 97/130/97 96/129/96
f 115/149/187 116/150/188 98/131/170 97/130/97
s 21
f 116/150/189 117/151/190 99/132/85 98/131/84
s 2
f 117/151/191 118/152/192 100/133/89 99/132/88
f 118/152/192 119/153/193 101/134/69 100/133/89
f 119/153/193 120/154/194 102/135/70 101/134/69
f 120/154/195 121/155/196 103/136/74 102/135/73
f 121/155/196 122/156/197 104/137/92 103/136/74
f 122/156/197 123/157/198 105/138/93 104/137/92
f 123/157/198 124/158/199 106/139/157 105/138/93
f 124/158/199 125/159/200 107/140/47 106/139/157
f 125/159/200 126/160/201 108/141/48 107/140/47
f 126/160/202 127/161/203 109/142/52 108/141/51
f 127/161/203 128/162/204 110/143/9 109/142/52
f 128/162/204 111/144/205 93/125/10 110/143/9
s 4
f 3/28/104 2/1/103 112/146/183 111/145/182
s 24
f 92/124/206 113/147/185 112/146/184 2/1/207
f 68/92/208 114/148/186 113/147/185 92/124/206
f 69/93/209 115/149/187 114/148/186 68/92/208
f 42/21/210 116/150/188 115/149/187 69/93/209
s 21
f 42/21/137 41/57/136 117/151/190 116/150/189
s 2
f 41/57/142 40/14/67 118/152/192 117/151/191
f 30/19/66 119/153/193 118/152/192 40/14/67
f 30/19/66 29/47/126 120/154/194 119/153/193
f 29/47/131 28/9/130 121/155/196 120/154/195
f 76/102/46 122/156/197 121/155/196 28/9/130
f 61/83/45 123/157/198 122/156/197 76/102/46
f 85/115/156 124/158/199 123/157/198 61/83/45
f 18/17/117 125/159/200 124/158/199 85/115/156
f 18/17/117 17/38/116 126/160/201 125/159/200
f 17/38/120 16/5/23 127/161/203 126/160/202
f 4/2/22 128/162/204 127/161/203 16/5/23
f 4/2/22 3/27/106 111/144/205 128/162/204
f 130/164/53 129/163/12 10/16/33 22/6/36
f 131/165/54 130/164/53 22/6/36 21/41/125
f 132/166/50 131/165/49 21/41/125 20/18/124
f 133/167/158 132/166/50 20/18/124 86/116/159
f 134/168/94 133/167/158 86/116/159 62/84/55
f 135/169/95 134/168/94 62/84/55 75/101/58
f 136/170/75 135/169/95 75/101/58 34/10/135
f 137/171/76 136/170/75 34/10/135 33/50/134
f 138/172/72 137/171/71 33/50/134 32/20/77
f 139/173/90 138/172/72 32/20/77 46/15/80
f 140/174/91 139/173/90 46/15/80 45/60/150
s 21
f 141/175/87 140/174/86 45/60/148 44/13/147
s 24
f 142/176/98 141/175/171 44/13/211 70/94/212
f 143/177/99 142/176/98 70/94/212 67/91/213
f 144/178/167 143/177/99 67/91/213 91/123/214
f 145/179/179 144/178/167 91/123/214 12/3/215
s 4
f 146/181/16 145/179/15 12/3/109 11/33/108
s 2
f 129/163/12 146/180/11 11/34/114 10/16/33
