# This file uses centimeters as units for non-parametric coordinates.

mtllib tree2V2.mtl
g default
v 0.353553 0.000000 -0.353553
v 0.000000 0.000000 -0.500000
v -0.353553 0.000000 -0.353553
v -0.500000 0.000000 0.000000
v -0.353553 0.000000 0.353553
v 0.000000 0.000000 0.500000
v 0.353553 0.000000 0.353553
v 0.500000 0.000000 0.000000
v 0.353553 1.000000 -0.353553
v 0.000000 1.000000 -0.500000
v -0.353553 1.000000 -0.353553
v -0.500000 1.000000 0.000000
v -0.353553 1.000000 0.353553
v 0.000000 1.000000 0.500000
v 0.353553 1.000000 0.353553
v 0.500000 1.000000 0.000000
v 0.353553 2.000000 -0.353553
v 0.000000 2.000000 -0.500000
v -0.353553 2.000000 -0.353553
v -0.500000 2.000000 0.000000
v -0.353553 2.000000 0.353553
v 0.000000 2.000000 0.500000
v 0.353553 2.000000 0.353553
v 0.500000 2.000000 0.000000
v 0.353553 3.430551 -0.353553
v 0.000000 3.430551 -0.500000
v -0.353553 3.430551 -0.353553
v -0.500000 3.430551 0.000000
v -0.353553 3.430551 0.353553
v 0.000000 3.430551 0.500000
v 0.353553 3.430551 0.353553
v 0.500000 3.430551 0.000000
v 1.373478 4.000000 -1.373478
v -0.000000 4.000000 -1.942391
v -1.373478 4.000000 -1.373478
v -1.942391 4.000000 -0.000000
v -1.373478 4.000000 1.373478
v -0.000000 4.000000 1.942391
v 1.373478 4.000000 1.373479
v 1.942391 4.000000 -0.000000
v 1.782820 5.000000 -1.782825
v -0.000007 5.000000 -2.521299
v -1.782834 5.000000 -1.782825
v -2.521307 5.000000 0.000001
v -1.782834 5.000000 1.782828
v -0.000007 5.000000 2.521302
v 1.782820 5.000000 1.782828
v 2.521294 5.000000 0.000001
v 1.782820 6.000000 -1.782825
v -0.000007 6.000000 -2.521299
v -1.782834 6.000000 -1.782825
v -2.521307 6.000000 0.000001
v -1.782834 6.000000 1.782828
v -0.000007 6.000000 2.521302
v 1.782820 6.000000 1.782828
v 2.521294 6.000000 0.000001
v 1.420660 7.000000 -1.420660
v -0.000000 7.000000 -2.009120
v -1.420660 7.000000 -1.420660
v -2.009120 7.000000 -0.000000
v -1.420660 7.000000 1.420660
v -0.000000 7.000000 2.009120
v 1.420660 7.000000 1.420660
v 2.009120 7.000000 -0.000000
v 0.196103 7.675862 -0.196103
v 0.000000 7.675862 -0.277331
v -0.196103 7.675862 -0.196103
v -0.277331 7.675862 -0.000000
v -0.196103 7.675862 0.196103
v 0.000000 7.675862 0.277331
v 0.196103 7.675862 0.196103
v 0.277331 7.675862 -0.000000
v 0.196103 7.675862 -0.196103
v 0.000000 7.675862 -0.277331
v -0.196103 7.675862 -0.196103
v -0.277331 7.675862 -0.000000
v -0.196103 7.675862 0.196103
v 0.000000 7.675862 0.277331
v 0.196103 7.675862 0.196103
v 0.277331 7.675862 -0.000000
v 0.000000 0.000000 -0.391761
v -0.277017 0.000000 -0.277017
v 0.000000 0.000000 0.000000
v -0.391761 0.000000 0.000000
v -0.277017 0.000000 0.277017
v 0.000000 0.000000 0.391761
v 0.277017 0.000000 0.277017
v 0.391761 0.000000 0.000000
v 0.277017 0.000000 -0.277017
v 0.000000 7.675862 -0.169092
v 0.000000 7.675862 0.000000
v -0.119566 7.675862 -0.119566
v -0.169092 7.675862 -0.000000
v -0.119566 7.675862 0.119566
v 0.000000 7.675862 0.169092
v 0.119566 7.675862 0.119566
v 0.169092 7.675862 -0.000000
v 0.119566 7.675862 -0.119566
vt 0.799977 0.728085
vt 0.826873 0.728085
vt 0.826873 0.804160
vt 0.799977 0.804160
vt 0.853770 0.728085
vt 0.853770 0.804160
vt 0.826873 0.880235
vt 0.799977 0.880235
vt 0.853770 0.880235
vt 0.826873 0.989064
vt 0.799977 0.989064
vt 0.853770 0.989064
vt 0.907563 0.728085
vt 0.934460 0.728085
vt 0.934460 0.804160
vt 0.907563 0.804160
vt 0.961356 0.728085
vt 0.961356 0.804160
vt 0.934460 0.880235
vt 0.907563 0.880235
vt 0.961356 0.880235
vt 0.934460 0.989064
vt 0.907563 0.989064
vt 0.961356 0.989064
vt 0.001828 0.872203
vt 0.001828 0.746360
vt 0.077885 0.746360
vt 0.077885 0.872203
vt 0.001828 0.625408
vt 0.077885 0.625408
vt 0.153822 0.746360
vt 0.153822 0.872203
vt 0.153822 0.625408
vt 0.229664 0.746360
vt 0.229664 0.872203
vt 0.229664 0.625408
vt 0.001828 0.378719
vt 0.001828 0.253059
vt 0.077885 0.253059
vt 0.077885 0.378719
vt 0.001828 0.127427
vt 0.077885 0.127427
vt 0.153822 0.253059
vt 0.153822 0.378719
vt 0.153822 0.127427
vt 0.229664 0.253059
vt 0.229664 0.378719
vt 0.229664 0.127427
vt 0.666017 0.124497
vt 0.654876 0.151394
vt 0.545146 0.151394
vt 0.588426 0.046907
vt 0.666017 0.178291
vt 0.588426 0.255881
vt 0.692913 0.113356
vt 0.692913 0.003627
vt 0.692913 0.189432
vt 0.692913 0.299162
vt 0.719810 0.124497
vt 0.797401 0.046907
vt 0.719810 0.178291
vt 0.797401 0.255881
vt 0.730951 0.151394
vt 0.840681 0.151394
vt 0.497648 0.264547
vt 0.389571 0.309314
vt 0.389571 0.177568
vt 0.404490 0.171389
vt 0.281494 0.264547
vt 0.374653 0.171389
vt 0.542415 0.156470
vt 0.410669 0.156470
vt 0.236727 0.156470
vt 0.368473 0.156470
vt 0.497648 0.048394
vt 0.404490 0.141552
vt 0.281494 0.048394
vt 0.374653 0.141552
vt 0.389571 0.003627
vt 0.389571 0.135372
vt 0.693828 0.968189
vt 0.685099 0.947115
vt 0.714902 0.947115
vt 0.714902 0.976918
vt 0.688006 0.974012
vt 0.676865 0.947115
vt 0.693828 0.926041
vt 0.714902 0.917312
vt 0.735976 0.968189
vt 0.744705 0.947115
vt 0.714902 0.985152
vt 0.688006 0.920218
vt 0.714902 0.909077
vt 0.735976 0.926041
vt 0.741799 0.974012
vt 0.752940 0.947115
vt 0.741799 0.920218
vt 0.692753 0.151525
vt 0.692753 0.164388
vt 0.683657 0.160621
vt 0.679890 0.151525
vt 0.705617 0.151525
vt 0.701849 0.160621
vt 0.692753 0.172623
vt 0.677835 0.166443
vt 0.671655 0.151525
vt 0.683657 0.142429
vt 0.692753 0.138661
vt 0.701849 0.142429
vt 0.713851 0.151525
vt 0.707672 0.166443
vt 0.677835 0.136606
vt 0.692753 0.130427
vt 0.707672 0.136606
vt 0.988253 0.728085
vt 0.773080 0.804160
vt 0.773080 0.880235
vt 0.773080 0.989064
vt 0.880666 0.728085
vt 0.880666 0.804160
vt 0.880666 0.880235
vt 0.880666 0.989064
vt 0.001828 0.998008
vt 0.077885 0.998008
vt 0.153822 0.998008
vt 0.229664 0.998008
vt 0.001828 0.504501
vt 0.077885 0.504501
vt 0.153822 0.504501
vt 0.229664 0.504501
vt 0.988253 0.880235
vt 0.988253 0.989064
vt 0.988253 0.804160
vt 0.773080 0.728085
vt 0.229664 0.001992
vt 0.389571 0.309314
vt 0.389571 0.177568
vt 0.153822 0.001992
vt 0.077885 0.001992
vt 0.545146 0.151394
vt 0.001828 0.001992
vt 0.654876 0.151394
vn 0.382683 0.000000 -0.923880
vn 0.382683 0.000000 -0.923880
vn 0.382683 0.000000 -0.923880
vn 0.382683 0.000000 -0.923880
vn -0.382683 0.000000 -0.923880
vn -0.382683 0.000000 -0.923880
vn -0.382683 0.000000 -0.923880
vn -0.382683 0.000000 -0.923880
vn -0.923880 0.000000 -0.382683
vn -0.923880 0.000000 -0.382683
vn -0.923880 0.000000 -0.382683
vn -0.923880 0.000000 -0.382683
vn -0.923880 0.000000 0.382683
vn -0.923880 0.000000 0.382683
vn -0.923880 0.000000 0.382683
vn -0.923880 0.000000 0.382683
vn -0.382683 0.000000 0.923880
vn -0.382683 0.000000 0.923880
vn -0.382683 0.000000 0.923880
vn -0.382683 0.000000 0.923880
vn 0.382683 0.000000 0.923880
vn 0.382683 0.000000 0.923880
vn 0.382683 0.000000 0.923880
vn 0.382683 0.000000 0.923880
vn 0.923880 0.000000 0.382683
vn 0.923880 0.000000 0.382683
vn 0.923880 0.000000 0.382683
vn 0.923880 0.000000 0.382683
vn 0.923880 0.000000 -0.382684
vn 0.923880 0.000000 -0.382684
vn 0.923880 0.000000 -0.382684
vn 0.923880 0.000000 -0.382684
vn 0.382683 0.000000 -0.923880
vn 0.382683 0.000000 -0.923880
vn -0.382683 0.000000 -0.923880
vn -0.382683 0.000000 -0.923880
vn -0.923880 0.000000 -0.382683
vn -0.923880 0.000000 -0.382683
vn -0.923880 0.000000 0.382683
vn -0.923880 0.000000 0.382683
vn -0.382684 0.000000 0.923880
vn -0.382684 0.000000 0.923880
vn 0.382683 0.000000 0.923880
vn 0.382683 0.000000 0.923880
vn 0.923880 0.000000 0.382683
vn 0.923880 0.000000 0.382683
vn 0.923879 0.000000 -0.382684
vn 0.923879 0.000000 -0.382684
vn 0.236144 -0.786906 -0.570101
vn 0.236144 -0.786906 -0.570101
vn -0.236144 -0.786906 -0.570101
vn -0.236144 -0.786906 -0.570101
vn -0.570101 -0.786906 -0.236144
vn -0.570101 -0.786906 -0.236144
vn -0.570101 -0.786906 0.236144
vn -0.570101 -0.786906 0.236144
vn -0.236144 -0.786906 0.570101
vn -0.236144 -0.786906 0.570101
vn 0.236144 -0.786906 0.570102
vn 0.236144 -0.786906 0.570102
vn 0.570101 -0.786906 0.236144
vn 0.570101 -0.786906 0.236144
vn 0.570101 -0.786906 -0.236144
vn 0.570101 -0.786906 -0.236144
vn 0.291280 -0.648577 -0.703210
vn 0.291279 -0.648577 -0.703210
vn -0.291279 -0.648579 -0.703209
vn -0.291279 -0.648579 -0.703208
vn -0.703207 -0.648580 -0.291278
vn -0.703207 -0.648581 -0.291278
vn -0.703207 -0.648581 0.291278
vn -0.703207 -0.648581 0.291278
vn -0.291278 -0.648580 0.703207
vn -0.291279 -0.648580 0.703208
vn 0.291279 -0.648578 0.703209
vn 0.291279 -0.648578 0.703209
vn 0.703210 -0.648577 0.291280
vn 0.703211 -0.648576 0.291280
vn 0.703211 -0.648576 -0.291280
vn 0.703211 -0.648576 -0.291280
vn 0.372638 -0.227633 -0.899624
vn 0.372638 -0.227634 -0.899624
vn -0.372638 -0.227636 -0.899624
vn -0.372638 -0.227636 -0.899624
vn -0.899624 -0.227637 -0.372637
vn -0.899624 -0.227638 -0.372637
vn -0.899623 -0.227639 0.372637
vn -0.899624 -0.227638 0.372637
vn -0.372637 -0.227637 0.899624
vn -0.372637 -0.227637 0.899624
vn 0.372637 -0.227636 0.899624
vn 0.372638 -0.227634 0.899624
vn 0.899625 -0.227633 0.372638
vn 0.899625 -0.227633 0.372638
vn 0.899625 -0.227633 -0.372638
vn 0.899625 -0.227633 -0.372638
vn 0.374513 0.205549 -0.904151
vn 0.374513 0.205550 -0.904151
vn -0.374513 0.205551 -0.904151
vn -0.374513 0.205552 -0.904151
vn -0.904150 0.205553 -0.374513
vn -0.904150 0.205554 -0.374513
vn -0.904150 0.205554 0.374513
vn -0.904150 0.205554 0.374513
vn -0.374513 0.205553 0.904150
vn -0.374513 0.205552 0.904151
vn 0.374513 0.205551 0.904151
vn 0.374513 0.205550 0.904151
vn 0.904151 0.205549 0.374513
vn 0.904151 0.205548 0.374513
vn 0.904151 0.205548 -0.374513
vn 0.904151 0.205548 -0.374513
vn 0.293833 0.640667 -0.709372
vn 0.293832 0.640669 -0.709370
vn -0.293832 0.640670 -0.709370
vn -0.293832 0.640670 -0.709370
vn -0.709369 0.640671 -0.293831
vn -0.709368 0.640672 -0.293831
vn -0.709368 0.640672 0.293831
vn -0.709368 0.640672 0.293831
vn -0.293831 0.640671 0.709369
vn -0.293832 0.640671 0.709369
vn 0.293832 0.640670 0.709370
vn 0.293832 0.640668 0.709371
vn 0.709371 0.640667 0.293833
vn 0.709371 0.640667 0.293833
vn 0.709372 0.640667 -0.293833
vn 0.709372 0.640667 -0.293833
vn 0.148914 0.921183 -0.359509
vn 0.148914 0.921183 -0.359509
vn -0.148914 0.921183 -0.359509
vn -0.148914 0.921183 -0.359509
vn -0.359509 0.921183 -0.148914
vn -0.359509 0.921183 -0.148914
vn -0.359509 0.921183 0.148914
vn -0.359509 0.921183 0.148914
vn -0.148914 0.921183 0.359509
vn -0.148914 0.921183 0.359509
vn 0.148914 0.921183 0.359509
vn 0.148914 0.921183 0.359509
vn 0.359509 0.921183 0.148914
vn 0.359509 0.921183 0.148914
vn 0.359509 0.921183 -0.148914
vn 0.359509 0.921183 -0.148914
vn 0.000000 -1.000000 0.000000
vn 0.000000 -1.000000 0.000000
vn 0.000000 -1.000000 0.000000
vn 0.000000 -1.000000 0.000000
vn 0.000000 -1.000000 0.000000
vn 0.000000 -1.000000 0.000000
vn 0.000000 -1.000000 0.000000
vn 0.000000 -1.000000 0.000000
vn 0.000000 -1.000000 0.000000
vn -0.000001 1.000000 0.000001
vn -0.000001 1.000000 0.000003
vn -0.000000 1.000000 0.000000
vn 0.000001 1.000000 -0.000001
vn -0.000000 1.000000 -0.000000
vn -0.000001 1.000000 -0.000001
vn 0.000000 1.000000 0.000000
vn 0.000000 1.000000 0.000001
vn 0.000000 1.000000 0.000002
vn 0.000000 0.000000 0.000000
vn 0.000000 0.000000 0.000000
vn 0.000000 0.000000 0.000000
vn 0.000000 0.000000 0.000000
vn 0.000000 0.000000 0.000000
vn 0.000000 0.000000 0.000000
vn 0.000000 0.000000 0.000000
vn 0.000000 0.000000 0.000000
vn 0.000000 0.000000 0.000000
vn 0.000000 0.000000 0.000000
vn 0.000000 0.000000 0.000000
vn 0.000000 0.000000 0.000000
vn 0.000000 0.000000 0.000000
vn 0.000000 0.000000 0.000000
vn 0.000000 0.000000 0.000000
vn 0.000000 0.000000 0.000000
vn 0.000000 0.000000 0.000000
vn 0.000000 0.000000 0.000000
vn 0.000000 0.000000 0.000000
vn 0.000000 0.000000 0.000000
vn 0.000000 0.000000 0.000000
vn 0.000000 0.000000 0.000000
vn 0.000000 0.000000 0.000000
vn 0.000000 0.000000 0.000000
vn 0.000000 0.000000 0.000000
vn 0.000000 0.000000 0.000000
vn 0.000000 0.000000 0.000000
vn 0.000000 0.000000 0.000000
vn 0.000000 0.000000 0.000000
vn 0.000000 0.000000 0.000000
vn 0.000000 0.000000 0.000000
vn 0.000000 0.000000 0.000000
vn 0.000000 -1.000000 0.000000
vn 0.000000 -1.000000 0.000000
vn 0.000000 -1.000000 0.000000
vn 0.000000 -1.000000 0.000000
vn 0.000000 -1.000000 0.000000
vn 0.000000 -1.000000 0.000000
vn 0.000000 -1.000000 0.000000
vn 0.000000 -1.000000 0.000000
vn -0.000000 1.000000 0.000004
vn 0.000001 1.000000 0.000001
vn 0.000003 1.000000 -0.000002
vn 0.000001 1.000000 -0.000002
vn -0.000000 1.000000 -0.000003
vn 0.000000 1.000000 0.000001
vn 0.000000 1.000000 0.000002
vn 0.000000 1.000000 0.000002
s 1
g pCylinder1
usemtl standardSurface2SG
f 1/17/1 2/115/2 10/133/3 9/18/4
s 2
f 2/134/5 3/1/6 11/4/7 10/116/8
s 3
f 3/1/9 4/2/10 12/3/11 11/4/12
s 4
f 4/2/13 5/5/14 13/6/15 12/3/16
s 5
f 5/5/17 6/119/18 14/120/19 13/6/20
s 6
f 6/119/21 7/13/22 15/16/23 14/120/24
s 7
f 7/13/25 8/14/26 16/15/27 15/16/28
s 8
f 8/14/29 1/17/30 9/18/31 16/15/32
s 1
f 9/18/4 10/133/3 18/131/33 17/21/34
s 2
f 10/116/8 11/4/7 19/8/35 18/117/36
s 3
f 11/4/12 12/3/11 20/7/37 19/8/38
s 4
f 12/3/16 13/6/15 21/9/39 20/7/40
s 5
f 13/6/20 14/120/19 22/121/41 21/9/42
s 6
f 14/120/24 15/16/23 23/20/43 22/121/44
s 7
f 15/16/28 16/15/27 24/19/45 23/20/46
s 8
f 16/15/32 9/18/31 17/21/47 24/19/48
s 1
f 17/21/34 18/131/33 26/132/49 25/24/50
s 2
f 18/117/36 19/8/35 27/11/51 26/118/52
s 3
f 19/8/38 20/7/37 28/10/53 27/11/54
s 4
f 20/7/40 21/9/39 29/12/55 28/10/56
s 5
f 21/9/42 22/121/41 30/122/57 29/12/58
s 6
f 22/121/44 23/20/43 31/23/59 30/122/60
s 7
f 23/20/46 24/19/45 32/22/61 31/23/62
s 8
f 24/19/48 17/21/47 25/24/63 32/22/64
s 1
f 25/49/50 26/142/49 34/140/65 33/52/66
s 2
f 26/50/52 27/53/51 35/54/67 34/51/68
s 3
f 27/53/54 28/57/53 36/58/69 35/54/70
s 4
f 28/57/56 29/61/55 37/62/71 36/58/72
s 5
f 29/61/58 30/63/57 38/64/73 37/62/74
s 6
f 30/63/60 31/59/59 39/60/75 38/64/76
s 7
f 31/59/62 32/55/61 40/56/77 39/60/78
s 8
f 32/55/64 25/49/63 33/52/79 40/56/80
s 1
f 33/41/66 34/141/65 42/139/81 41/42/82
s 2
f 34/123/68 35/25/67 43/28/83 42/124/84
s 3
f 35/25/70 36/26/69 44/27/85 43/28/86
s 4
f 36/26/72 37/29/71 45/30/87 44/27/88
s 5
f 37/29/74 38/127/73 46/128/89 45/30/90
s 6
f 38/127/76 39/37/75 47/40/91 46/128/92
s 7
f 39/37/78 40/38/77 48/39/93 47/40/94
s 8
f 40/38/80 33/41/79 41/42/95 48/39/96
s 1
f 41/42/82 42/139/81 50/138/97 49/45/98
s 2
f 42/124/84 43/28/83 51/32/99 50/125/100
s 3
f 43/28/86 44/27/85 52/31/101 51/32/102
s 4
f 44/27/88 45/30/87 53/33/103 52/31/104
s 5
f 45/30/90 46/128/89 54/129/105 53/33/106
s 6
f 46/128/92 47/40/91 55/44/107 54/129/108
s 7
f 47/40/94 48/39/93 56/43/109 55/44/110
s 8
f 48/39/96 41/42/95 49/45/111 56/43/112
s 1
f 49/45/98 50/138/97 58/135/113 57/48/114
s 2
f 50/125/100 51/32/99 59/35/115 58/126/116
s 3
f 51/32/102 52/31/101 60/34/117 59/35/118
s 4
f 52/31/104 53/33/103 61/36/119 60/34/120
s 5
f 53/33/106 54/129/105 62/130/121 61/36/122
s 6
f 54/129/108 55/44/107 63/47/123 62/130/124
s 7
f 55/44/110 56/43/109 64/46/125 63/47/126
s 8
f 56/43/112 49/45/111 57/48/127 64/46/128
s 1
f 57/65/114 58/136/113 66/137/129 65/68/130
s 2
f 58/66/116 59/69/115 67/70/131 66/67/132
s 3
f 59/69/118 60/73/117 68/74/133 67/70/134
s 4
f 60/73/120 61/77/119 69/78/135 68/74/136
s 5
f 61/77/122 62/79/121 70/80/137 69/78/138
s 6
f 62/79/124 63/75/123 71/76/139 70/80/140
s 7
f 63/75/126 64/71/125 72/72/141 71/76/142
s 8
f 64/71/128 57/65/127 65/68/143 72/72/144
s 9
f 82/81/145 81/82/146 83/83/147 84/84/148
f 85/89/149 84/84/148 83/83/147 86/90/150
f 87/94/151 86/90/150 83/83/147 88/88/152
f 89/87/153 88/88/152 83/83/147 81/82/146
s 10
f 91/98/154 90/99/155 92/100/156 93/101/157
f 91/98/154 93/101/157 94/107/158 95/108/159
f 91/98/154 95/108/159 96/109/160 97/102/161
f 91/98/154 97/102/161 98/103/162 90/99/155
s off
f 65//163 66//164 74//165 73//166
f 66//167 67//168 75//169 74//170
f 67//171 68//172 76//173 75//174
f 68//175 69//176 77//177 76//178
f 69//179 70//180 78//181 77//182
f 70//183 71//184 79//185 78//186
f 71//187 72//188 80//189 79//190
f 72//191 65//192 73//193 80//194
s 9
f 3/85/195 2/86/196 81/82/146 82/81/145
f 4/91/197 3/85/195 82/81/145 84/84/148
f 5/95/198 4/91/197 84/84/148 85/89/149
f 6/96/199 5/95/198 85/89/149 86/90/150
f 7/97/200 6/96/199 86/90/150 87/94/151
f 8/93/201 7/97/200 87/94/151 88/88/152
f 1/92/202 8/93/201 88/88/152 89/87/153
f 2/86/196 1/92/202 89/87/153 81/82/146
s 10
f 74/104/203 75/105/204 92/100/156 90/99/155
f 75/105/204 76/106/205 93/101/157 92/100/156
f 76/106/205 77/112/206 94/107/158 93/101/157
f 77/112/206 78/113/207 95/108/159 94/107/158
f 78/113/207 79/114/208 96/109/160 95/108/159
f 79/114/208 80/110/209 97/102/161 96/109/160
f 80/110/209 73/111/210 98/103/162 97/102/161
f 73/111/210 74/104/203 90/99/155 98/103/162
